<svg xmlns="http://www.w3.org/2000/svg" xmlns:xlink="http://www.w3.org/1999/xlink" width="1049.498" height="1097.784" viewBox="0 0 1049.498 1097.784">
  <defs>
    <clipPath id="clip-path">
      <rect id="Rectangle_408" data-name="Rectangle 408" width="525.893" height="163.057" fill="none"/>
    </clipPath>
    <clipPath id="clip-path-2">
      <rect id="Rectangle_406" data-name="Rectangle 406" width="602.043" height="523.451" fill="none"/>
    </clipPath>
    <clipPath id="clip-path-4">
      <rect id="Rectangle_388" data-name="Rectangle 388" width="94.782" height="144.547" fill="none"/>
    </clipPath>
    <clipPath id="clip-path-5">
      <rect id="Rectangle_389" data-name="Rectangle 389" width="84.686" height="133.936" fill="none"/>
    </clipPath>
    <clipPath id="clip-path-6">
      <rect id="Rectangle_390" data-name="Rectangle 390" width="104.012" height="156.586" fill="none"/>
    </clipPath>
    <clipPath id="clip-path-7">
      <rect id="Rectangle_391" data-name="Rectangle 391" width="95.547" height="39.17" fill="none"/>
    </clipPath>
    <clipPath id="clip-path-8">
      <rect id="Rectangle_392" data-name="Rectangle 392" width="148.147" height="75.293" fill="none"/>
    </clipPath>
    <clipPath id="clip-path-9">
      <rect id="Rectangle_393" data-name="Rectangle 393" width="43.711" height="56.649" fill="none"/>
    </clipPath>
    <clipPath id="clip-path-10">
      <rect id="Rectangle_394" data-name="Rectangle 394" width="144.287" height="191.341" fill="none"/>
    </clipPath>
    <clipPath id="clip-path-11">
      <rect id="Rectangle_395" data-name="Rectangle 395" width="38.096" height="25.62" fill="none"/>
    </clipPath>
    <clipPath id="clip-path-12">
      <rect id="Rectangle_396" data-name="Rectangle 396" width="118.426" height="251.973" fill="none"/>
    </clipPath>
    <clipPath id="clip-path-13">
      <rect id="Rectangle_397" data-name="Rectangle 397" width="20.403" height="145.168" fill="none"/>
    </clipPath>
    <clipPath id="clip-path-14">
      <rect id="Rectangle_398" data-name="Rectangle 398" width="20.291" height="6.726" fill="none"/>
    </clipPath>
    <clipPath id="clip-path-16">
      <rect id="Rectangle_400" data-name="Rectangle 400" width="40.168" height="44.696" fill="none"/>
    </clipPath>
    <clipPath id="clip-path-17">
      <rect id="Rectangle_401" data-name="Rectangle 401" width="110.688" height="188.128" fill="none"/>
    </clipPath>
    <clipPath id="clip-path-18">
      <rect id="Rectangle_402" data-name="Rectangle 402" width="22.285" height="141.972" fill="none"/>
    </clipPath>
    <clipPath id="clip-path-19">
      <rect id="Rectangle_403" data-name="Rectangle 403" width="102.654" height="36.478" fill="none"/>
    </clipPath>
    <clipPath id="clip-path-20">
      <rect id="Rectangle_404" data-name="Rectangle 404" width="37.938" height="55.024" fill="none"/>
    </clipPath>
    <clipPath id="clip-path-21">
      <rect id="Rectangle_409" data-name="Rectangle 409" width="134.124" height="79.11" transform="translate(0 0)" fill="none"/>
    </clipPath>
    <clipPath id="clip-path-22">
      <rect id="Rectangle_410" data-name="Rectangle 410" width="132.269" height="99.843" fill="none"/>
    </clipPath>
  </defs>
  <g id="Group_1025" data-name="Group 1025" transform="translate(43.821)">
    <g id="Group_1024" data-name="Group 1024" clip-path="url(#clip-path)">
      <text id="Your_Daily" data-name="Your Daily" transform="translate(0.341 49.12)" fill="#474747" font-size="56" font-family="Impact"><tspan x="0" y="0" letter-spacing="-0.044em">Y</tspan><tspan y="0">our Daily</tspan></text>
      <text id="Exam_Preperation" data-name="Exam Preperation" transform="translate(0.341 139.392)" fill="#f7931e" font-size="73" font-family="Impact"><tspan x="0" y="0">Exam Preperation</tspan></text>
    </g>
  </g>
  <g id="Group_1353" data-name="Group 1353" transform="translate(0 48.286)">
    <path id="Path_4049" data-name="Path 4049" d="M11.435,9.831.781,0,0,.871,10.655,10.7Z" transform="translate(297.136 296.105) rotate(45)" fill="#f7931e"/>
    <path id="Path_4050" data-name="Path 4050" d="M11.435,9.83.781,0,0,.871,10.655,10.7Z" transform="translate(294.807 238.164) rotate(45)" fill="#f7931e"/>
    <path id="Path_4051" data-name="Path 4051" d="M11.434,9.83.78,0,0,.871,10.654,10.7Z" transform="translate(295.972 267.135) rotate(45)" fill="#f7931e"/>
    <path id="Path_4052" data-name="Path 4052" d="M0,.871,10.654,10.7l.78-.871L.78,0Z" transform="translate(298.3 325.076) rotate(45)" fill="#f7931e"/>
    <path id="Path_4053" data-name="Path 4053" d="M0,.871,10.654,10.7l.781-.871L.78,0Z" transform="translate(299.465 354.046) rotate(45)" fill="#f7931e"/>
    <path id="Path_4054" data-name="Path 4054" d="M0,.871,10.654,10.7l.781-.871L.78,0Z" transform="translate(292.478 180.224) rotate(45)" fill="#f7931e"/>
    <path id="Path_4055" data-name="Path 4055" d="M11.435,9.831.781,0,0,.871,10.655,10.7Z" transform="translate(293.643 209.194) rotate(45)" fill="#f7931e"/>
    <path id="Path_4056" data-name="Path 4056" d="M0,.871,10.654,10.7l.781-.871L.78,0Z" transform="translate(291.314 151.254) rotate(45)" fill="#f7931e"/>
    <path id="Path_4057" data-name="Path 4057" d="M5.575,4.424.781,0,0,.871,5.508,5.954l5.929-4.568-.7-.938Z" transform="translate(300.628 383.016) rotate(45)" fill="#f7931e"/>
    <path id="Path_4058" data-name="Path 4058" d="M0,8.329l.7.938L11.513.938,10.812,0Z" transform="translate(327.328 386.791) rotate(45)" fill="#f7931e"/>
    <path id="Path_4059" data-name="Path 4059" d="M0,8.329l.7.938L11.513.938,10.813,0Z" transform="translate(408.539 397.328) rotate(45)" fill="#f7931e"/>
    <path id="Path_4060" data-name="Path 4060" d="M0,8.328l.7.938L11.513.938,10.812,0Z" transform="translate(381.468 393.816) rotate(45)" fill="#f7931e"/>
    <path id="Path_4061" data-name="Path 4061" d="M11.514.938,10.812,0,0,8.328l.7.938Z" transform="translate(489.749 407.865) rotate(45)" fill="#f7931e"/>
    <path id="Path_4062" data-name="Path 4062" d="M0,8.329l.7.938L11.513.938,10.813,0Z" transform="translate(354.398 390.304) rotate(45)" fill="#f7931e"/>
    <path id="Path_4063" data-name="Path 4063" d="M11.513.938,10.812,0,0,8.329l.7.938Z" transform="translate(435.609 400.84) rotate(45)" fill="#f7931e"/>
    <path id="Path_4064" data-name="Path 4064" d="M10.812,0,0,8.329l.7.938L11.514.938Z" transform="translate(516.82 411.376) rotate(45)" fill="#f7931e"/>
    <path id="Path_4065" data-name="Path 4065" d="M0,8.328l.7.938L11.513.938,10.812,0Z" transform="translate(462.679 404.352) rotate(45)" fill="#f7931e"/>
    <path id="Path_4066" data-name="Path 4066" d="M0,4.459.7,5.4,6,1.314l6.314,2.137.367-1.118L5.789,0Z" transform="translate(541.154 417.625) rotate(45)" fill="#f7931e"/>
    <path id="Path_4067" data-name="Path 4067" d="M13.982,4.606.367,0,0,1.117,13.614,5.723Z" transform="translate(554.583 440.867) rotate(45)" fill="#f7931e"/>
    <path id="Path_4068" data-name="Path 4068" d="M0,1.117,13.614,5.723l.367-1.117L.367,0Z" transform="translate(567.322 466.635) rotate(45)" fill="#f7931e"/>
    <path id="Path_4069" data-name="Path 4069" d="M13.982,4.606.367,0,0,1.117,13.614,5.723Z" transform="translate(592.801 518.169) rotate(45)" fill="#f7931e"/>
    <path id="Path_4070" data-name="Path 4070" d="M0,1.117,13.614,5.724l.367-1.117L.367,0Z" transform="translate(580.062 492.401) rotate(45)" fill="#f7931e"/>
    <path id="Path_4071" data-name="Path 4071" d="M6.627,4.789.366,2.671,0,3.788,6.948,6.139,12.067.823,11.238,0Z" transform="translate(607.43 542.048) rotate(45)" fill="#f7931e"/>
    <path id="Path_4080" data-name="Path 4080" d="M10.166.824,9.337,0,0,9.7l.829.824Z" transform="translate(635.694 542.882) rotate(45)" fill="#f7931e"/>
    <path id="Path_4108" data-name="Path 4108" d="M0,.186,2.122,13.6l1.147-.185L1.147,0Z" transform="translate(388.566 606.913) rotate(45)" fill="#f7931e"/>
    <path id="Path_4110" data-name="Path 4110" d="M0,.186,2.122,13.6l1.147-.186L1.147,0Z" transform="translate(372.598 628.884) rotate(45)" fill="#f7931e"/>
    <path id="Path_4111" data-name="Path 4111" d="M0,.186,2.122,13.6l1.147-.186L1.147,0Z" transform="translate(356.629 650.855) rotate(45)" fill="#f7931e"/>
    <path id="Path_4113" data-name="Path 4113" d="M.045,0,0,1.178l6.481.256,1.027,6.5,1.147-.186L7.475.3Z" transform="translate(396.72 585.139) rotate(45)" fill="#f7931e"/>
    <path id="Path_4114" data-name="Path 4114" d="M0,1.177l14.969.6L15.014.6.045,0Z" transform="translate(376.393 563.128) rotate(45)" fill="#f7931e"/>
    <rect id="Rectangle_412" data-name="Rectangle 412" width="1.179" height="14.98" transform="matrix(0.735, -0.678, 0.678, 0.735, 355.237, 541.949)" fill="#f7931e"/>
    <path id="Path_4115" data-name="Path 4115" d="M0,7.443l1.139.219L2.334,1.217l6.455.257L8.835.3,1.379,0Z" transform="translate(339.901 523.688) rotate(45)" fill="#f7931e"/>
    <path id="Path_4116" data-name="Path 4116" d="M0,13.9H1.18L3.714.219,2.574,0Z" transform="translate(220.968 604.016) rotate(45)" fill="#f7931e"/>
    <path id="Path_4117" data-name="Path 4117" d="M0,14.828l1.139.219L3.887.219,2.747,0Z" transform="translate(320.268 535.551) rotate(45)" fill="#f7931e"/>
    <path id="Path_4118" data-name="Path 4118" d="M0,14.829l1.139.219L3.887.219,2.747,0Z" transform="translate(245.701 586.808) rotate(45)" fill="#f7931e"/>
    <path id="Path_4119" data-name="Path 4119" d="M0,14.828l1.139.219L3.887.219,2.747,0Z" transform="translate(295.413 552.637) rotate(45)" fill="#f7931e"/>
    <path id="Path_4120" data-name="Path 4120" d="M0,14.829l1.139.219L3.887.219,2.747,0Z" transform="translate(270.557 569.722) rotate(45)" fill="#f7931e"/>
    <path id="Path_4135" data-name="Path 4135" d="M0,11.04a10.959,10.959,0,0,0,10.877,11.04A10.958,10.958,0,0,0,21.753,11.04,10.959,10.959,0,0,0,10.877,0,10.959,10.959,0,0,0,0,11.04" transform="translate(301.557 374.589) rotate(45)" fill="#ffe1fb"/>
    <path id="Path_4136" data-name="Path 4136" d="M0,5.6a5.559,5.559,0,0,0,5.517,5.6,5.559,5.559,0,0,0,5.517-5.6A5.559,5.559,0,0,0,5.517,0,5.559,5.559,0,0,0,0,5.6" transform="translate(301.501 382.225) rotate(45)" fill="#ffc135"/>
    <path id="Path_4139" data-name="Path 4139" d="M0,11.04a10.958,10.958,0,0,0,10.877,11.04A10.958,10.958,0,0,0,21.753,11.04,10.959,10.959,0,0,0,10.877,0,10.959,10.959,0,0,0,0,11.04" transform="translate(544.584 407.301) rotate(45)" fill="#ffe1fb"/>
    <path id="Path_4140" data-name="Path 4140" d="M0,5.6a5.559,5.559,0,0,0,5.517,5.6,5.559,5.559,0,0,0,5.517-5.6A5.559,5.559,0,0,0,5.517,0,5.559,5.559,0,0,0,0,5.6" transform="translate(544.528 414.937) rotate(45)" fill="#ffc135"/>
    <path id="Path_4141" data-name="Path 4141" d="M0,11.04a10.958,10.958,0,0,0,10.876,11.04A10.958,10.958,0,0,0,21.752,11.04,10.958,10.958,0,0,0,10.876,0,10.958,10.958,0,0,0,0,11.04" transform="translate(400.404 575.238) rotate(45)" fill="#ffe1fb"/>
    <path id="Path_4142" data-name="Path 4142" d="M0,5.6a5.559,5.559,0,0,0,5.517,5.6,5.558,5.558,0,0,0,5.517-5.6A5.559,5.559,0,0,0,5.518,0,5.559,5.559,0,0,0,0,5.6" transform="translate(400.347 582.874) rotate(45)" fill="#ffc135"/>
    <rect id="Rectangle_413" data-name="Rectangle 413" width="914.706" height="569.508" transform="translate(402.703 0) rotate(45)" fill="none"/>
    <g id="Group_1021" data-name="Group 1021" transform="translate(35.557 285.941)">
      <g id="Group_1020" data-name="Group 1020" clip-path="url(#clip-path-2)">
        <path id="Path_3788" data-name="Path 3788" d="M220.261,282.424l-47.3,210.54H405.531l47.3-210.54Z" transform="translate(18.67 30.487)" fill="#3b2d51"/>
        <path id="Path_3789" data-name="Path 3789" d="M234.278,83H199.594l-9.256,153.789h39.257Z" transform="translate(20.547 8.959)" fill="#732c84"/>
        <path id="Path_3790" data-name="Path 3790" d="M238.129,83H202.893l-9.148,153.789h39.882Z" transform="translate(20.914 8.959)" fill="#ab56bf"/>
        <path id="Path_3791" data-name="Path 3791" d="M243.461,86.426H208.225l-14.584,149.5,37.247.191Z" transform="translate(20.903 9.33)" fill="#732c84"/>
        <g id="Group_1019" data-name="Group 1019">
          <g id="Group_1018" data-name="Group 1018" clip-path="url(#clip-path-2)">
            <path id="Path_3792" data-name="Path 3792" d="M234.8,84.833c-8.484,3.335-17.4,3.663-26.662,1.585l-10.368,148.14c11.36-2.059,22.263-2.085,30.151.329Z" transform="translate(21.349 9.158)" fill="#ddcba6"/>
            <path id="Path_3793" data-name="Path 3793" d="M321.814,80.421H229.66L217.678,237.062h94.059Z" transform="translate(23.498 8.681)" fill="#732c84"/>
            <path id="Path_3794" data-name="Path 3794" d="M325.589,80.421H233.435L221.453,237.062h94.058Z" transform="translate(23.905 8.681)" fill="#bf63d6"/>
            <path id="Path_3795" data-name="Path 3795" d="M217.727,87.516a52.21,52.21,0,0,1-9.59-1.252L197.767,234.4a92.272,92.272,0,0,1,13.479-1.457Z" transform="translate(21.349 9.312)" fill="#efe3ca"/>
            <g id="Group_969" data-name="Group 969" transform="translate(250.031 95.148)" opacity="0.45" style="mix-blend-mode: overlay;isolation: isolate">
              <g id="Group_968" data-name="Group 968">
                <g id="Group_967" data-name="Group 967" clip-path="url(#clip-path-4)">
                  <path id="Path_3796" data-name="Path 3796" d="M311.34,230.426H225.669L236.5,85.878h83.948Zm-84.066-1.489h82.668l8.923-141.57H237.884Z" transform="translate(-225.67 -85.878)" fill="#fff"/>
                </g>
              </g>
            </g>
            <g id="Group_972" data-name="Group 972" transform="translate(255.078 100.454)" opacity="0.45" style="mix-blend-mode: overlay;isolation: isolate">
              <g id="Group_971" data-name="Group 971">
                <g id="Group_970" data-name="Group 970" clip-path="url(#clip-path-5)">
                  <path id="Path_3797" data-name="Path 3797" d="M306.77,224.6H230.226l9.679-133.936h75.006Zm-75.11-1.379h73.862l7.972-131.178H241.139Z" transform="translate(-230.226 -90.667)" fill="#fff"/>
                </g>
              </g>
            </g>
            <g id="Group_975" data-name="Group 975" transform="translate(245.456 89.052)" opacity="0.6" style="mix-blend-mode: multiply;isolation: isolate">
              <g id="Group_974" data-name="Group 974">
                <g id="Group_973" data-name="Group 973" clip-path="url(#clip-path-6)">
                  <path id="Path_3798" data-name="Path 3798" d="M283.872,80.376l-21.79,61.571L239.871,130l-12.248,24.744-6.082,82.221H313.01l12.543-56.629L305.029,80.376Z" transform="translate(-221.541 -80.376)" fill="#c94343"/>
                </g>
              </g>
            </g>
            <path id="Path_3799" data-name="Path 3799" d="M301.453,19.18c-12.285-4.374-8.919-16.491-4.207-18.51s16.492.167,13.968,11.612-9.761,6.9-9.761,6.9" transform="translate(31.626 0)" fill="#964532"/>
            <path id="Path_3800" data-name="Path 3800" d="M302.784,11.636c-5.345-1.9-7.726-5.273-8.323-8.638-2.648,4.376-2.559,12.457,6.992,15.859,0,0,7.237,4.543,9.761-6.9a13.108,13.108,0,0,0,.307-3.931c-3.048,7.174-8.737,3.61-8.737,3.61" transform="translate(31.626 0.324)" fill="#7f3425"/>
            <path id="Path_3801" data-name="Path 3801" d="M304.292,19.37c-9.651-2.531-7.008-9.536-3.3-10.7s12.956.1,10.973,6.714-7.668,3.989-7.668,3.989" transform="translate(32.128 0.894)" fill="#ffb94a"/>
            <path id="Path_3802" data-name="Path 3802" d="M307.171,69.256c-17-12.117-16.829-41.229-9.256-52.336s28.1-11.106,36.855-1.009,9.648,26.308,2.075,34.89-29.674,18.455-29.674,18.455" transform="translate(31.629 0.913)" fill="#964532"/>
            <path id="Path_3803" data-name="Path 3803" d="M334.637,41.077c-.38-18.116-2.914-22.8-10.642-27.365,0,0,9.122,7.6,4.814,18.243Z" transform="translate(34.975 1.48)" fill="#7f3425"/>
            <path id="Path_3804" data-name="Path 3804" d="M330.357,40.7c-5.225-19.32-8.96-23.813-17.742-27.09,0,0,10.96,6.243,9.6,18.534Z" transform="translate(33.746 1.469)" fill="#7f3425"/>
            <path id="Path_3805" data-name="Path 3805" d="M316.318,35.371c-9.3-7.856-13.421-17.829-7.527-24.8a12.615,12.615,0,0,1,1.538-1.5c-5.07,1.128-9.622,3.7-12.412,7.791-7.573,11.107-7.741,40.221,9.255,52.336,0,0,22.1-9.872,29.674-18.454a21.186,21.186,0,0,0,4.785-10.851c-6.159,6.011-16.426,2.991-25.312-4.515" transform="translate(31.629 0.978)" fill="#7f3425"/>
            <path id="Path_3806" data-name="Path 3806" d="M356.462,137.631C355.2,109.8,326.73,78.371,323.814,78.146s-2.4,11.637,4.781,23.3,15.078,39.322,15.975,42.239,12.117-1.122,11.892-6.058" transform="translate(34.775 8.435)" fill="#db2828"/>
            <path id="Path_3807" data-name="Path 3807" d="M324.129,75.737c-1.347-.1-2.031,2.943-1.673,7.4,5.6,4.33,28.658,33.83,31.143,59.193,1.685-1.226,2.915-2.779,2.84-4.437-1.264-27.827-29.393-61.929-32.31-62.154" transform="translate(34.798 8.175)" fill="#ed4848"/>
            <path id="Path_3808" data-name="Path 3808" d="M265.136,139.485c1.265-27.827,29.73-62.713,32.647-62.938s1.907,19.858-5.273,31.526-14.585,34.555-15.482,37.472-12.116-1.122-11.892-6.059" transform="translate(28.62 8.263)" fill="#ed4848"/>
            <path id="Path_3809" data-name="Path 3809" d="M290.3,101.956c-8.794,12.791-11.845,32.179-24.958,31.609-.8-.034,5.679,10.924,4.237,10.756,3.161,1.681,6.929,2.24,7.434.6.9-2.916,10.921-27.116,18.1-38.784,4.036-6.559-.028-17.042.506-23.818-1.908,6.366-1.454,14.012-5.32,19.637" transform="translate(28.636 8.886)" fill="#db2828"/>
            <path id="Path_3810" data-name="Path 3810" d="M282.986,132.423c-5.448-4.434-16.216-5.954-19-4.18s-1.646,14.7,6.334,16.976,12.669-12.8,12.669-12.8" transform="translate(28.348 13.765)" fill="#ffe9ca"/>
            <path id="Path_3811" data-name="Path 3811" d="M324.5,100.6,294.4,85.813c13.968,64.957-1.022,56.923,2.469,82.138,17.085,7.042,33.52,4.312,49.362-7.365C330.386,157.241,324.5,100.6,324.5,100.6" transform="translate(31.78 9.263)" fill="#ed4848"/>
            <path id="Path_3812" data-name="Path 3812" d="M307.729,167.74c-3.826-15.991,1.9-31.066,12.786-33.672A15.5,15.5,0,0,1,331,135.448a245.47,245.47,0,0,1-6.5-34.852L294.4,85.813c13.967,64.958-1.022,56.923,2.469,82.139a50.862,50.862,0,0,0,11.883,3.327c-.38-1.151-.732-2.324-1.023-3.539" transform="translate(31.78 9.263)" fill="#db2828"/>
            <path id="Path_3813" data-name="Path 3813" d="M325.361,162.767l-87.112-36.824c20.144,31.333,49.042,61,58.8,63.7s43.747,4.107,50.483,1.426,58.992-58.47,58.992-58.47-68.034,29.847-81.16,30.163" transform="translate(25.718 13.595)" fill="#6d2d4a"/>
            <path id="Path_3814" data-name="Path 3814" d="M361.194,145.381l-31.482,19.193,10.579-11.211Z" transform="translate(35.592 15.694)" fill="#934769"/>
            <path id="Path_3815" data-name="Path 3815" d="M293.783,77.964c-5.668,10.058.047,46.847,2.614,49.309s40.375-1.8,42.253-3.444-7.448-44.839-10.474-47.1-12.7-6.157-14.936-6.362-18.845,6.509-19.456,7.593" transform="translate(31.452 7.596)" fill="#ed4848"/>
            <path id="Path_3816" data-name="Path 3816" d="M298.887,122.69c-1.954-1.984-6.66-23.8-6.924-39.964-2.207,14.187,2.079,42.049,4.263,44.144,2.568,2.463,40.546-2.732,42.423-4.374.245-.214.3-1.143.2-2.584-7.957,2.074-37.583,5.194-39.963,2.778" transform="translate(31.451 8.93)" fill="#db2828"/>
            <path id="Path_3817" data-name="Path 3817" d="M324.317,124.97c-.048,3.136-1.8,3.991-2.185,6.082s-1.474-.9-1-2.614,3.183-3.468,3.183-3.468" transform="translate(34.653 13.49)" fill="#ff9566"/>
            <path id="Path_3818" data-name="Path 3818" d="M318.935,127.487c2.97,2.08,4.276,1.331,4.894.617a11.979,11.979,0,0,0,1.33-2.613l-3.373-.95.1,2.137s-4.846-.523-2.946.808" transform="translate(34.381 13.444)" fill="#ffb882"/>
            <path id="Path_3819" data-name="Path 3819" d="M316.963,128.345c2.97,2.08,4.276,1.331,4.894.617a11.98,11.98,0,0,0,1.329-2.613l-3.373-.951.1,2.138s-4.846-.523-2.946.808" transform="translate(34.168 13.537)" fill="#ffb882"/>
            <path id="Path_3820" data-name="Path 3820" d="M271.025,133.233c12.806-4.959,51.51-9.491,51.51-9.491l.308.985s-37.662,21.815-49.624,19.526c-12-2.3-7.37-9.016-2.194-11.021" transform="translate(28.676 13.358)" fill="#ffb882"/>
            <path id="Path_3821" data-name="Path 3821" d="M277.627,137.647c-4.5-1.045-6.719-2.538-7.474-4.1-4.775,2.368-8.256,8.467,3.066,10.634,11.961,2.289,49.624-19.526,49.624-19.526l-.083-.265c-11.853,5.344-35.94,15.392-45.132,13.255" transform="translate(28.676 13.428)" fill="#ff9566"/>
            <path id="Path_3822" data-name="Path 3822" d="M325.076,124.36c-2.343-2.026-7.474-1.646-11.656.126l-1.2,2.471c3.484-.76,8.614.76,10.2,1.14s5-1.711,2.66-3.737" transform="translate(33.703 13.277)" fill="#ffb882"/>
            <path id="Path_3823" data-name="Path 3823" d="M323.678,124.027c2.71,2.246,6.711,7.458,6.659,8.378-.051.9-3.153-2.049-3.968-3.127a28.976,28.976,0,0,0-3.911-3.313Z" transform="translate(34.809 13.388)" fill="#ffb882"/>
            <path id="Path_3824" data-name="Path 3824" d="M349.883,84.952l-29.618,65.294-29.843,1.571-1.795,1.57,93.116-1.346,31.862-67.088Z" transform="translate(31.157 9.17)" fill="#eaddbe"/>
            <path id="Path_3825" data-name="Path 3825" d="M343.915,84.952c26.526,11.383,37.42,33.558,31.861,67.088l31.862-67.088Z" transform="translate(37.125 9.17)" fill="#f4e9d3"/>
            <path id="Path_3826" data-name="Path 3826" d="M322.485,152.9l30.59-67.946h-3.193l-29.618,65.294-29.841,1.571-1.8,1.571Z" transform="translate(31.157 9.17)" fill="#d8c091"/>
            <path id="Path_3827" data-name="Path 3827" d="M400.218,114.541c-11.78,2.692-38.368,32.31-69.669,76.738l.673,1.682s54.336-41.869,60.731-49.611,20.045-31.5,8.265-28.809" transform="translate(35.682 12.342)" fill="#934769"/>
            <path id="Path_3828" data-name="Path 3828" d="M393.045,137.5c-4.879,5.3-35.322,26.777-52.159,38.508q-5.067,6.89-10.337,14.363l.674,1.683s54.652-41.047,61.047-48.788c3.436-4.159,8.645-13.764,11.2-20.585A86.6,86.6,0,0,1,393.045,137.5" transform="translate(35.682 13.244)" fill="#7c3552"/>
            <path id="Path_3829" data-name="Path 3829" d="M334.884,184.114,363.3,162.76s14.032-26.309,28.636-44.574c-12.9,9.25-33.435,33.049-57.049,65.928" transform="translate(36.15 12.758)" fill="#7c3552"/>
            <path id="Path_3830" data-name="Path 3830" d="M239.591,123.693c-7.068,5.049,8.077,15.482,22.213,29.954s40.051,18.847,80.776,38.368l1.683-1.009c-48.466-45.774-97.6-72.362-104.672-67.313" transform="translate(25.67 13.286)" fill="#934769"/>
            <path id="Path_3831" data-name="Path 3831" d="M327.372,175.6c-34.048-14.321-56.278-18.791-69.181-31.534-7.556-7.465-15.366-13.808-20.075-18.9-2.534,5.5,10.642,16.42,23.35,29.432,14.136,14.472,40.389,17.674,81.114,37.2l1.683-1.01c-5.645-5.331-11.3-10.39-16.891-15.181" transform="translate(25.67 13.511)" fill="#7c3552"/>
            <path id="Path_3832" data-name="Path 3832" d="M333.318,188.962l4.916-7.881a86.322,86.322,0,0,0-15.783-11.859Z" transform="translate(34.808 18.267)" fill="#dbc7a1"/>
            <path id="Path_3833" data-name="Path 3833" d="M333.433,187.59l-6.2-2.156s4.934-8.7,18.261-15.01Z" transform="translate(35.325 18.397)" fill="#eaddbe"/>
            <path id="Path_3834" data-name="Path 3834" d="M324.907,74.878c-4.207-2.25-10.434-5.553-12.117-5.721-1.775-.177-12.669,5.018-17.277,7.516,8.758,30.51,24.009,43.192,24.009,43.192s6.787-44.237,5.385-44.987" transform="translate(31.9 7.465)" fill="#ffe9ca"/>
            <path id="Path_3835" data-name="Path 3835" d="M324.907,74.374l-1.043-.556c-.72,10.512-5.482,41.554-5.482,41.554s-13.92-11.594-22.8-39.239l-.07.037c8.758,30.51,24.335,44.821,24.335,44.821s6.462-45.866,5.059-46.616" transform="translate(31.9 7.969)" fill="#db2828"/>
            <path id="Path_3836" data-name="Path 3836" d="M301.843,76.288c-.168-20.026,2.861-31.637,2.861-31.637l11.948,10.77-.674,18.006s-2.861,6.058-6.562,6.563-7.573-3.7-7.573-3.7" transform="translate(32.583 4.82)" fill="#ffb882"/>
            <path id="Path_3837" data-name="Path 3837" d="M417.55,185.493H343.116c-13.172,0-16.958,38.336-3.787,38.336h74.435c-6.725-5.161-5.795-32.253,3.786-38.336" transform="translate(35.746 20.024)" fill="#e0d0b1"/>
            <path id="Path_3838" data-name="Path 3838" d="M357.814,183.787H254.05c-20.613-.616-22.887,41.5-2.273,42.118H355.541c-17.672-.527-15.4-42.645,2.273-42.118" transform="translate(25.627 19.839)" fill="#ff9a3e"/>
            <path id="Path_3839" data-name="Path 3839" d="M354.624,223.565c-7.545-.885-11.165-9.676-11.247-19.01H237.422c.207,9.688,4.835,18.823,14.352,19.107h102.85Z" transform="translate(25.629 22.081)" fill="#ed8129"/>
            <path id="Path_3840" data-name="Path 3840" d="M417.98,183.786H335.349l-.746,3.991h82.632a2.52,2.52,0,0,0,2.369-2,1.61,1.61,0,0,0-1.623-2" transform="translate(36.12 19.839)" fill="#ffb94a"/>
            <path id="Path_3841" data-name="Path 3841" d="M416.34,218.672H334.023l-.8,3.466h82.318a2.492,2.492,0,0,0,2.394-1.733c.22-.957-.494-1.733-1.6-1.733" transform="translate(35.971 23.605)" fill="#ffb94a"/>
            <path id="Path_3842" data-name="Path 3842" d="M411.445,192.434H347.2c-13.172,0-14.678,25.736-1.506,25.736h64.522c-2.17-6.719-1.821-17.9,1.224-25.736" transform="translate(36.329 20.773)" fill="#f4e9d4"/>
            <path id="Path_3843" data-name="Path 3843" d="M348.057,183.786H335.72c-9.693,7.945-10.82,34.147-1.589,42.118h11.652c-17.672-.527-15.4-42.645,2.273-42.118" transform="translate(35.385 19.839)" fill="#ffb94a"/>
            <g id="Group_978" data-name="Group 978" transform="translate(268.645 205.096)" opacity="0.39" style="mix-blend-mode: overlay;isolation: isolate">
              <g id="Group_977" data-name="Group 977">
                <g id="Group_976" data-name="Group 976" clip-path="url(#clip-path-7)">
                  <path id="Path_3844" data-name="Path 3844" d="M336.607,224.283H257.593a14.29,14.29,0,0,1-12.613-7.772c-3.671-6.766-3.276-16.664.936-23.532,3.2-5.222,8.149-8.017,13.973-7.859h78.127l-1.726,1.333c-4.752,3.668-7.753,11.04-7.832,19.232-.071,7.492,2.359,13.95,6.5,17.275ZM259.456,186.6a14.066,14.066,0,0,0-12.272,7.155c-3.952,6.443-4.329,15.714-.9,22.044a12.713,12.713,0,0,0,11.324,6.992h74.981c-3.615-3.831-5.692-10.065-5.624-17.124.074-7.752,2.677-14.841,6.9-19.062h-74c-.138,0-.277-.006-.413-.006" transform="translate(-242.471 -185.113)" fill="#fff"/>
                </g>
              </g>
            </g>
            <path id="Path_3845" data-name="Path 3845" d="M458.088,219.093H342.871c-20.388,0-21.466,73.69-1.078,73.69H457.009c-11.052-9.919-12.993-62,1.079-73.69" transform="translate(35.302 23.651)" fill="#e0d0b1"/>
            <path id="Path_3846" data-name="Path 3846" d="M365.418,215.814H204.8c-31.984-1.183-30.248,79.774,1.735,80.958H367.154c-27.421-1.014-29.157-81.972-1.736-80.958" transform="translate(19.61 23.295)" fill="#5e85bc"/>
            <path id="Path_3847" data-name="Path 3847" d="M365.7,292.275c-11.79-1.7-18.488-18.6-19.78-36.541H181.912c1.528,18.622,9.831,36.18,24.6,36.726h159.2Z" transform="translate(19.637 27.606)" fill="#4e75a5"/>
            <path id="Path_3848" data-name="Path 3848" d="M458.754,215.813h-127.9l-.656,7.671H458.1c1.706,0,3.235-1.717,3.417-3.836h0c.181-2.118-1.055-3.836-2.761-3.836" transform="translate(35.644 23.297)" fill="#749dce"/>
            <path id="Path_3849" data-name="Path 3849" d="M460.575,282.87H333.156l-.8,6.662H459.772a3.735,3.735,0,0,0,3.49-3.332,2.8,2.8,0,0,0-2.688-3.332" transform="translate(35.877 30.535)" fill="#749dce"/>
            <path id="Path_3850" data-name="Path 3850" d="M449.606,232.436H350.168c-20.388,0-19.509,49.47.88,49.47h99.874c-4.2-12.913-5.051-34.4-1.315-49.47" transform="translate(36.196 25.091)" fill="#f4e9d4"/>
            <path id="Path_3851" data-name="Path 3851" d="M350.316,215.814h-19.1c-14.014,15.272-12.489,65.638,2.8,80.958h18.036c-27.419-1.014-29.157-81.972-1.736-80.958" transform="translate(34.713 23.296)" fill="#749dce"/>
            <g id="Group_981" data-name="Group 981" transform="translate(209.972 241.936)" opacity="0.39" style="mix-blend-mode: overlay;isolation: isolate">
              <g id="Group_980" data-name="Group 980">
                <g id="Group_979" data-name="Group 979" clip-path="url(#clip-path-8)">
                  <path id="Path_3852" data-name="Path 3852" d="M337.661,293.657l-122.3,0c-8.536-.283-15.8-5.586-20.495-14.938-6.526-13.008-7.151-32.032-1.486-45.234,4.308-10.037,11.612-15.41,20.647-15.106H334.959l-2.507,2.562c-6.9,7.053-10.623,21.221-9.722,36.969.824,14.4,5.39,26.815,12.213,33.2ZM213.538,221.226c-7.883,0-14.284,4.862-18.1,13.753-5.315,12.385-4.742,30.207,1.363,42.373,2.986,5.954,8.6,13.116,18.4,13.44l116.061,0c-6.073-7.366-10.064-19.347-10.84-32.916-.853-14.9,2.291-28.527,8.3-36.642H214.179c-.214-.008-.429-.011-.641-.011" transform="translate(-189.514 -218.364)" fill="#fff"/>
                </g>
              </g>
            </g>
            <g id="Group_984" data-name="Group 984" transform="translate(314.927 53.914)" opacity="0.6" style="mix-blend-mode: multiply;isolation: isolate">
              <g id="Group_983" data-name="Group 983">
                <g id="Group_982" data-name="Group 982" clip-path="url(#clip-path-9)">
                  <path id="Path_3853" data-name="Path 3853" d="M316.562,102.517c7.87-4.641,11.908-14.06,11.34-24.117-.49-.3-1.026-.6-1.642-.925-.01-.06-.015-.141-.028-.186-.029-.107-.064-.176-.109-.2-2.5-1.335-5.694-3.035-8.241-4.237l.609-16.3a28.049,28.049,0,0,0-12.787-7.9,154.492,154.492,0,0,0-1.962,26.706c-2.647,1.253-5.218,2.548-6.943,3.481l-.07.037.035.116c-.464.224-.87.43-1.2.613-1.327.44-5.954,5.419-11.318,12.9,8.02,11.7,21.77,16.226,32.318,10" transform="translate(-284.244 -48.661)" fill="#c94343"/>
                </g>
              </g>
            </g>
            <path id="Path_3854" data-name="Path 3854" d="M302.824,41.191c-6.445,27.741,15.98,38.573,15.98,38.573s17.687-17.02,19.8-38.315c1.141-11.513-.524-15.022-12-16.829-11.453-1.8-22.1,9.354-23.774,16.57" transform="translate(32.564 2.637)" fill="#ffb882"/>
            <path id="Path_3855" data-name="Path 3855" d="M304.534,56.571c5.9-17.17,7.2-31.613.177-30.856s-10.1,25.4-.177,30.856" transform="translate(32.191 2.773)" fill="#7f3425"/>
            <path id="Path_3856" data-name="Path 3856" d="M305.62,57.284c1.474-14.688.2-16.488-4.42-16.517-5.294-.032-5.733,14.092,4.42,16.517" transform="translate(32.117 4.401)" fill="#ffb882"/>
            <path id="Path_3857" data-name="Path 3857" d="M303.935,53.59c.883-8.8.119-9.881-2.648-9.9-3.173-.02-3.437,8.445,2.648,9.9" transform="translate(32.285 4.717)" fill="#db5b3e"/>
            <path id="Path_3858" data-name="Path 3858" d="M304.075,54.205c.025-5.663-.6-6.3-2.583-6.141-2.276.185-1.88,5.593,2.583,6.141" transform="translate(32.399 5.186)" fill="#ffb882"/>
            <path id="Path_3859" data-name="Path 3859" d="M329.886,49.13c.4-2.308-.44-4.335-1.872-4.529s-2.916,1.535-3.315,3.85.439,4.34,1.867,4.526,2.918-1.531,3.321-3.847" transform="translate(35.04 4.813)" fill="#66423b"/>
            <path id="Path_3860" data-name="Path 3860" d="M317.255,47.5c.544-2.656-.246-5.037-1.782-5.339s-3.2,1.612-3.744,4.268.253,5.043,1.778,5.337,3.2-1.615,3.747-4.266" transform="translate(33.632 4.548)" fill="#66423b"/>
            <path id="Path_3861" data-name="Path 3861" d="M309.609,45.343s5.467-2.842,9.594-1.462c0,0-.654-2.287-3.924-2.2s-5.669,3.661-5.669,3.661" transform="translate(33.422 4.499)" fill="#66423b"/>
            <path id="Path_3862" data-name="Path 3862" d="M332.116,47.549s-3.877-3.347-7.862-2.841a3.812,3.812,0,0,1,4.056-1.26c2.8.607,3.806,4.1,3.806,4.1" transform="translate(35.003 4.677)" fill="#66423b"/>
            <path id="Path_3863" data-name="Path 3863" d="M309.471,40.972l-.05-.592a12.933,12.933,0,0,1,9.015-5.044l-.145,2.033c-1.915-.331-6.484.945-8.82,3.6" transform="translate(33.401 3.814)" fill="#7c4343"/>
            <path id="Path_3864" data-name="Path 3864" d="M333.406,43.333c-1.89-3.72-6.471-5.079-7.64-5.1l.48-1.971c1.306.084,5.5,1.789,7.606,6.423Z" transform="translate(35.166 3.914)" fill="#7c4343"/>
            <path id="Path_3865" data-name="Path 3865" d="M323.083,54.8c-.031.075-.029.148-.065.218a2.854,2.854,0,0,1-3.881,1.2,2.939,2.939,0,0,1-1.506-2.11,2.915,2.915,0,0,0,1.354,3.687,2.773,2.773,0,0,0,4.1-2.991" transform="translate(34.264 5.841)" fill="#ea7b59"/>
            <path id="Path_3866" data-name="Path 3866" d="M313.209,60.716l9.785,1.574s-2.113,4.718-6.08,3.969c-3.8-.718-3.7-5.543-3.7-5.543" transform="translate(33.81 6.554)" fill="#491d2e"/>
            <path id="Path_3867" data-name="Path 3867" d="M313.791,60.991l8.31,1.337s.135,2.259-4.6,1.581c-4.994-.711-3.7-2.918-3.7-2.918" transform="translate(33.857 6.584)" fill="#ffebeb"/>
            <path id="Path_3868" data-name="Path 3868" d="M318.56,67.533c.151-.6-.849-.141-1.9-.315s-1.745-.916-1.9-.315.576,1.232,1.623,1.406,2.019-.174,2.17-.777" transform="translate(33.976 7.197)" fill="#ef8f6f"/>
            <path id="Path_3869" data-name="Path 3869" d="M414.619,251.755H297.79l-7.511,112.7,76.73,105.364Z" transform="translate(31.335 27.176)" fill="#8b54b2"/>
            <path id="Path_3870" data-name="Path 3870" d="M417.3,255.508H300.471l-7.511,112.7,76.73,105.364Z" transform="translate(31.624 27.582)" fill="#634c84"/>
            <path id="Path_3871" data-name="Path 3871" d="M419.785,260.379H302.956L260.47,457.371l111.705,21.072Z" transform="translate(28.117 28.107)" fill="#e2d5af"/>
            <path id="Path_3872" data-name="Path 3872" d="M308.995,269.48c20.793-.557,38.267-2.029,38.267-6.781a2.686,2.686,0,0,0-.1-.581H302.293Z" transform="translate(32.632 28.295)" fill="#f7f0da"/>
            <path id="Path_3873" data-name="Path 3873" d="M299.763,259.413c14.264,2.241,21.294,9.565,19.269,18.784-2.575,11.734-19.269-18.784-19.269-18.784" transform="translate(32.359 28.003)" fill="#3b2d51"/>
            <path id="Path_3874" data-name="Path 3874" d="M432.729,274.933H315.9L268.29,493H385.119Z" transform="translate(28.961 29.678)" fill="#634c84"/>
            <path id="Path_3875" data-name="Path 3875" d="M453.238,274.933H336.41L288.8,493H405.629Z" transform="translate(31.175 29.678)" fill="#4c396b"/>
            <g id="Group_987" data-name="Group 987" transform="translate(309.11 319.755)" style="mix-blend-mode: overlay;isolation: isolate">
              <g id="Group_986" data-name="Group 986">
                <g id="Group_985" data-name="Group 985" clip-path="url(#clip-path-10)">
                  <path id="Path_3876" data-name="Path 3876" d="M320.768,288.6l-41.775,191.34H381.5L423.279,288.6Zm59.044,188.184h-96.8L322.46,291.759h96.8Z" transform="translate(-278.993 -288.601)" fill="#eaddbe"/>
                </g>
              </g>
            </g>
            <g id="Group_990" data-name="Group 990" transform="translate(351.577 279.024)" opacity="0.6" style="mix-blend-mode: multiply;isolation: isolate">
              <g id="Group_989" data-name="Group 989">
                <g id="Group_988" data-name="Group 988" clip-path="url(#clip-path-11)">
                  <path id="Path_3877" data-name="Path 3877" d="M317.323,251.839l3.141,3.769-.79,5.467,13.655,16.384h17.856l4.233-25.62Z" transform="translate(-317.323 -251.839)" fill="#c94343"/>
                </g>
              </g>
            </g>
            <path id="Path_3878" data-name="Path 3878" d="M503.729,226.595H381.746a7.159,7.159,0,0,0-7.146,6.729L359.07,491.4a7.158,7.158,0,0,0,7.146,7.588H497.3a7.158,7.158,0,0,0,7.156-6.98l6.429-258.078a7.158,7.158,0,0,0-7.156-7.337" transform="translate(38.759 24.46)" fill="#f24c5c"/>
            <path id="Path_3879" data-name="Path 3879" d="M431.263,226.595H383.408c-1.485,0-2.323,2.949-1.912,6.729L409.541,491.4c.448,4.116,2.19,7.588,3.808,7.588h51.423c1.523,0,2.36-3.1,1.883-6.98L435.041,233.932c-.493-4.022-2.2-7.337-3.778-7.337" transform="translate(41.17 24.46)" fill="#d63444"/>
            <g id="Group_993" data-name="Group 993" transform="translate(427.338 262.455)" style="mix-blend-mode: overlay;isolation: isolate">
              <g id="Group_992" data-name="Group 992">
                <g id="Group_991" data-name="Group 991" clip-path="url(#clip-path-12)">
                  <path id="Path_3880" data-name="Path 3880" d="M490.773,488.857H385.7v-.872l.216-251.1h110.76a7.445,7.445,0,0,1,7.448,7.633L498.22,481.6a7.407,7.407,0,0,1-7.447,7.262m-103.326-1.745H490.773a5.67,5.67,0,0,0,5.7-5.561l5.906-237.079a5.7,5.7,0,0,0-5.7-5.843H387.663Z" transform="translate(-385.702 -236.884)" fill="#eaddbe"/>
                </g>
              </g>
            </g>
            <path id="Path_3881" data-name="Path 3881" d="M385.912,226.595H346.985l-4.643,272.4h43.335Z" transform="translate(36.955 24.46)" fill="#d63444"/>
            <path id="Path_3882" data-name="Path 3882" d="M346.54,226.595l-.076,4.455,33.657.345,2.394,267.6h2.717l.236-272.4Z" transform="translate(37.4 24.46)" fill="#b72036"/>
            <path id="Path_3883" data-name="Path 3883" d="M450.741,315.334s29.218,85.183,29.266,88.16-40.517,73.7-40.517,73.7l-.96-.283,20.509-71.436-17.335-42.521Z" transform="translate(47.338 34.04)" fill="#6d3e4c"/>
            <path id="Path_3884" data-name="Path 3884" d="M447.112,334.019l-11.355,21.229L458.034,402.7l-19.2,72.2.188.057c7.65-17.454,27.967-69.771,27.926-72.253-.033-2.046-11.2-43.321-19.833-68.682" transform="translate(47.039 36.057)" fill="#592e3c"/>
            <path id="Path_3885" data-name="Path 3885" d="M414.979,326.062c12.437,59.317,49.157,160.246,49.157,160.246h1.091l-14.653-128.8,7.273-6.893-4.142-34.892s-41.346-2.154-38.727,10.338" transform="translate(44.783 34.066)" fill="#6d3e4c"/>
            <path id="Path_3886" data-name="Path 3886" d="M419.872,341.024c17.08-15.891,23.169-15.446,28.071-13.516a14.429,14.429,0,0,0,9.208.447l-2.377-9.655-34.309-1.782Z" transform="translate(45.324 34.167)" fill="#592e3c"/>
            <path id="Path_3887" data-name="Path 3887" d="M421.482,318.274c-4.42,1.57-7.25,3.938-6.5,7.5,12.437,59.316,49.157,160.246,49.157,160.246h1.008c-5.9-20.772-32.338-114.66-43.662-167.743" transform="translate(44.783 34.357)" fill="#592e3c"/>
            <path id="Path_3888" data-name="Path 3888" d="M448.507,356.209l-10.137-3.9,10.249-.223,8.911-7.351Z" transform="translate(47.321 37.214)" fill="#592e3c"/>
            <path id="Path_3889" data-name="Path 3889" d="M438.1,239.272c19.227,15.749,26.386,45.613,26.386,45.613l37.023-1.635,1.841,8.795s-30.886,18-47.251,13.091-18-65.864-18-65.864" transform="translate(47.292 25.829)" fill="#ffb94a"/>
            <path id="Path_3890" data-name="Path 3890" d="M496.644,288.233c7.909,2.116,13.256.223,15.484-2.451s5.9-9.579,2.227-9.914-19.381,6.015-19.381,6.015Z" transform="translate(53.431 29.778)" fill="#ff9566"/>
            <path id="Path_3891" data-name="Path 3891" d="M467.509,291.588c-10.822-3.246-6.535-30-29.4-52.316,0,0,1.636,60.955,18,65.864s47.249-13.091,47.249-13.091l-1.039-4.967c-10.449,2.282-23.494,7.9-34.806,4.51" transform="translate(47.292 25.829)" fill="#ff9239"/>
            <path id="Path_3892" data-name="Path 3892" d="M500.4,289.207c0,.38-5.235-11.228-5.235-11.228l-10.249.73,1.189,7.612,3.119.126-3.713,2.157,4.01,6.343Z" transform="translate(52.346 30.007)" fill="#eaddbe"/>
            <path id="Path_3893" data-name="Path 3893" d="M417.768,233.364c-16.1,20.4-10.986,48.045-7.2,61.2s-2.348,39.692,7.752,51.425c0,0,14.585-15.964,24.8-14.629s12.7,6.52,15.372,4.234-.726-34.167.974-42.936-.832-32.45-12.187-46.177-29.517-13.117-29.517-13.117" transform="translate(43.901 25.191)" fill="#ffb94a"/>
            <path id="Path_3894" data-name="Path 3894" d="M415.65,242.657a7.341,7.341,0,0,0-5.134,2.557c-6.858,17.965-2.982,37.807.056,48.347,3.79,13.155-2.348,39.693,7.751,51.427,0,0,7.062-7.726,14.8-11.978a223.378,223.378,0,0,0,1.239-23.816c0-36.747-8.378-66.537-18.713-66.537" transform="translate(43.902 26.194)" fill="#ff6d2c"/>
            <path id="Path_3895" data-name="Path 3895" d="M427.645,225.271c-10.8-16.916-6.193-23.812-6.193-23.812s-5.86-8.877.087-17.241c0,0,.481-12.51,15.479-15.309,0,0,9.887-10.655,17.733-4.507,0,0,9.164-7.28,13.51,6.942s-1.11,14.122-1.11,14.122,8.584,18.425-5.279,22.931-34.227,16.873-34.227,16.873" transform="translate(45.216 17.541)" fill="#7a4939"/>
            <path id="Path_3896" data-name="Path 3896" d="M460.921,208.5s-10.624-.526-13.848-10.27c0,0-9.8-7.788-3.188-21.535,0,0-1.631-8.611,2.141-13.715-4.964,1.537-9.008,5.874-9.008,5.874-15,2.8-15.478,15.31-15.478,15.31-5.947,8.363-.089,17.241-.089,17.241s-4.608,6.895,6.194,23.811c0,0,19.51-11.846,33.338-16.573-.042-.09-.063-.143-.063-.143" transform="translate(45.216 17.594)" fill="#603428"/>
            <path id="Path_3897" data-name="Path 3897" d="M438.038,237.644l-21.349-4.279c16.773,7.976,32.822,22.7,32.822,22.7s-5.53-14.794-11.473-18.417" transform="translate(44.981 25.191)" fill="#eaddbe"/>
            <path id="Path_3898" data-name="Path 3898" d="M416.689,237.091l15.546-38.25,13.5,18.2-5.728,27.2Z" transform="translate(44.981 21.465)" fill="#ffb882"/>
            <path id="Path_3899" data-name="Path 3899" d="M529.7,221.529l-33.75,63-55.023,4.909.2,1.023H516.2l38.251-62.8Z" transform="translate(47.597 23.914)" fill="#dbccad"/>
            <path id="Path_3900" data-name="Path 3900" d="M495.946,278.391,440.923,283.3l.2,1.023H516.2l-17.208-2.453Z" transform="translate(47.597 30.052)" fill="#d1bb93"/>
            <path id="Path_3901" data-name="Path 3901" d="M441.108,283.984h75.068l-17.208-2.453Z" transform="translate(47.617 30.391)" fill="#ba9e70"/>
            <path id="Path_3902" data-name="Path 3902" d="M531.2,223.13l-37.93,64.707,17.276,2.451,38.25-62.8Z" transform="translate(53.247 24.086)" fill="#efe3ca"/>
            <path id="Path_3903" data-name="Path 3903" d="M529.516,223.13l-20.653,67.158,38.25-62.8Z" transform="translate(54.931 24.086)" fill="#f9f0e1"/>
            <path id="Path_3904" data-name="Path 3904" d="M410.794,291.9c2.291,13.741-2.18,37.038,6.864,48.046,6.815-28.347,17.658-38.076,41.025-36.086-.191-6.388-.276-12.391.187-15.92-12.851-1.769-34.513-3.246-48.076,3.96" transform="translate(44.344 30.926)" fill="#ff6d2c"/>
            <path id="Path_3905" data-name="Path 3905" d="M431.747,285.893c-1.711-25.568-9.61-53.711-13.887-52.28-5.057,1.694-13.5,12.412-15,27.753-1.369,14.029,8.24,45.311,15.3,51.038s47.355-22.81,58.047-27.515l1.924-11.659c-14.806-.4-33.877,5.76-46.381,12.663" transform="translate(43.474 25.212)" fill="#ffb94a"/>
            <path id="Path_3906" data-name="Path 3906" d="M431.6,280.472c12.541-5.256,29.142-9.2,42.178-8.2l-2.032,9.392c.481-.239.935-.46,1.336-.636l1.924-11.659c-13.68-.368-30.988,4.864-43.407,11.106" transform="translate(46.591 29.076)" fill="#ff9239"/>
            <path id="Path_3907" data-name="Path 3907" d="M422.331,302.094c-7.057-5.726-15.267-40.38-13.9-54.409a47.427,47.427,0,0,1,1.252-7.086,44.7,44.7,0,0,0-6.822,20.007c-1.369,14.029,6.842,48.683,13.9,54.409s48.752-26.182,59.444-30.886l1.188-7.2c-14.535,7.933-48.705,30.319-55.062,25.16" transform="translate(43.472 25.972)" fill="#ff9239"/>
            <path id="Path_3908" data-name="Path 3908" d="M474.272,472.961H459.28s-2.073-3.7.989-5.234c3.961-1.98,14,5.234,14,5.234" transform="translate(49.504 50.453)" fill="#f2e9ce"/>
            <path id="Path_3909" data-name="Path 3909" d="M448.439,473.935H440l-3.742-11.586s3.546-6.349,5.347-3.007c1.11,2.06.439,8.346.463,10.934a40.233,40.233,0,0,0,6.37,3.658" transform="translate(47.093 49.48)" fill="#f2e9ce"/>
            <path id="Path_3910" data-name="Path 3910" d="M302.661,256.086c-2.228,6.8,14.146,19.605,18.268,21.387l-12.253,2.9-12.365-18.156.928-10.508Z" transform="translate(31.986 27.171)" fill="#634c84"/>
            <path id="Path_3911" data-name="Path 3911" d="M320.118,280.741c-12.756-7.284-17.1-19.608-18.342-29.036L254.288,469.76c1.978,10.962,6.789,20,16.118,25.976Z" transform="translate(27.45 27.171)" fill="#503d70"/>
            <g id="Group_996" data-name="Group 996" transform="translate(387.762 359.894)" style="mix-blend-mode: overlay;isolation: isolate">
              <g id="Group_995" data-name="Group 995">
                <g id="Group_994" data-name="Group 994" clip-path="url(#clip-path-13)">
                  <path id="Path_3912" data-name="Path 3912" d="M370.384,324.829H352.156L349.983,470h20.291Z" transform="translate(-349.982 -324.829)" fill="#eaddbe"/>
                </g>
              </g>
            </g>
            <g id="Group_999" data-name="Group 999" transform="translate(389.952 263.366)" style="mix-blend-mode: overlay;isolation: isolate">
              <g id="Group_998" data-name="Group 998">
                <g id="Group_997" data-name="Group 997" clip-path="url(#clip-path-14)">
                  <path id="Path_3913" data-name="Path 3913" d="M352.663,244.432h18.228l1.358-6.726H351.959Z" transform="translate(-351.959 -237.706)" fill="#eaddbe"/>
                </g>
              </g>
            </g>
            <g id="Group_1002" data-name="Group 1002" transform="translate(389.952 278.069)" style="mix-blend-mode: overlay;isolation: isolate">
              <g id="Group_1001" data-name="Group 1001">
                <g id="Group_1000" data-name="Group 1000" clip-path="url(#clip-path-14)">
                  <path id="Path_3914" data-name="Path 3914" d="M352.663,257.7h18.228l1.358-6.725H351.959Z" transform="translate(-351.959 -250.977)" fill="#eaddbe"/>
                </g>
              </g>
            </g>
            <path id="Path_3915" data-name="Path 3915" d="M484.361,271.1c.336,3.518-.516,5.754-1.3,6.157s-3.447-.9-3.893-2.015,4.9-7.245,5.194-4.141" transform="translate(51.722 29.171)" fill="#ff9566"/>
            <path id="Path_3916" data-name="Path 3916" d="M483.694,269.172c-.235,6.611-.879,7.211-1.872,7.813s-4.093-.187-4.442-1.223.234-3.641,1.051-3.426a11.261,11.261,0,0,0,1.814.281Z" transform="translate(51.521 29.057)" fill="#ffb882"/>
            <path id="Path_3917" data-name="Path 3917" d="M482.387,267.614c-1.376-2.661-12.036-2.457-17.709,2.827l3.49,9.505c4.9-2.116,9.147-5.828,12.242-5.521s3.353-4.15,1.978-6.812" transform="translate(50.161 28.707)" fill="#ffb882"/>
            <path id="Path_3918" data-name="Path 3918" d="M480.18,270.446c-.234,6.611-.877,7.211-1.871,7.813s-4.093-.187-4.443-1.222.234-3.642,1.053-3.427a11.254,11.254,0,0,0,1.813.281Z" transform="translate(51.142 29.194)" fill="#ffb882"/>
            <path id="Path_3919" data-name="Path 3919" d="M478.689,266.242c3.58.821,6.135,2.512,7.325,4.161a22.189,22.189,0,0,1,2.719,6.835c.05.965-2,2.179-2.44.913s-1.809-5.058-2.182-5.212-4.017-2.088-4.191-2.055a43.571,43.571,0,0,1-1.231-4.642" transform="translate(51.673 28.74)" fill="#ffb882"/>
            <path id="Path_3920" data-name="Path 3920" d="M472.353,280.768c0,.445-5.235-13.144-5.235-13.144l-10.248.853,1.189,8.911,3.119.148-3.714,2.525,4.011,7.427Z" transform="translate(49.318 28.889)" fill="#eaddbe"/>
            <path id="Path_3921" data-name="Path 3921" d="M415.314,234.287l2.97-4.9,23.392,8.689-1.412,4.456Z" transform="translate(44.832 24.762)" fill="#eaddbe"/>
            <g id="Group_1005" data-name="Group 1005" transform="translate(453.482 230.912)" opacity="0.6" style="mix-blend-mode: multiply;isolation: isolate">
              <g id="Group_1004" data-name="Group 1004">
                <g id="Group_1003" data-name="Group 1003" clip-path="url(#clip-path-16)">
                  <path id="Path_3922" data-name="Path 3922" d="M442.034,243.307c-.157-.192-.318-.362-.478-.543l.769-2.426-.849-.315,2.586-12.285c-3.881-7.275-9.279-14.533-15.342-19.324l-9.488,23.346-.3-.111-2.97,4.9.377.124c-2.118,1.028-4.67,3.443-7.041,6.935,13.444-.511,32.1,12.824,38.942,8.712a3.507,3.507,0,0,0,1.225-1.314,59.275,59.275,0,0,0-7.432-7.7" transform="translate(-409.299 -208.414)" fill="#c94343"/>
                </g>
              </g>
            </g>
            <path id="Path_3923" data-name="Path 3923" d="M433.814,189.476a110.713,110.713,0,0,0-8.02,40.232c.066,1.45,13.164,11.145,17.658,12.029,0,0,15.964-20.179,19.274-37.05s-.965-21.038-6.025-22.077-19.717-.913-22.887,6.866" transform="translate(45.962 19.663)" fill="#ffb882"/>
            <path id="Path_3924" data-name="Path 3924" d="M431.308,215.6c11.094-26.54,14.2-39.347,4.748-34.515s-8.794,30.655-8.794,30.655Z" transform="translate(46.121 19.439)" fill="#603428"/>
            <path id="Path_3925" data-name="Path 3925" d="M431.629,204.957c.275-6.275-6.77-11.908-8.05-5.149s2.963,16.813,4.651,14.765,3.307-7.51,3.4-9.616" transform="translate(45.699 21.238)" fill="#ffb882"/>
            <path id="Path_3926" data-name="Path 3926" d="M429.972,204.929c.173-3.947-4.256-7.488-5.061-3.236s1.862,10.572,2.924,9.283a14.472,14.472,0,0,0,2.137-6.047" transform="translate(45.852 21.564)" fill="#db5b3e"/>
            <path id="Path_3927" data-name="Path 3927" d="M429.144,207.194c.113-2.594-2.8-4.92-3.326-2.126s1.225,6.947,1.922,6.1a9.51,9.51,0,0,0,1.4-3.974" transform="translate(45.956 22)" fill="#ffb882"/>
            <path id="Path_3928" data-name="Path 3928" d="M455.249,207.073c.74-1.712.546-3.394-.431-3.75s-2.363.746-3.1,2.461-.546,3.391.427,3.746,2.368-.738,3.1-2.456" transform="translate(48.714 21.941)" fill="#4f3131"/>
            <path id="Path_3929" data-name="Path 3929" d="M448.944,201.778c1.477-.513,2.139,17.814,1.215,19.822-.456,1-6.647-2.423-6.647-2.423s5.162-17.312,5.431-17.4" transform="translate(47.876 21.78)" fill="#ffb882"/>
            <path id="Path_3930" data-name="Path 3930" d="M449.339,202.384c.68,3.907,1.337,17.079.552,18.744-.356.755-4.262-1.173-5.859-2.053-.106.371-.174.585-.174.585s6.5,3.968,6.935,2.968c.834-1.93-.263-19.252-1.454-20.244" transform="translate(47.913 21.847)" fill="#ea7b59"/>
            <path id="Path_3931" data-name="Path 3931" d="M445.922,203.143c.875-1.66.824-3.353-.112-3.791s-2.41.542-3.284,2.195-.832,3.354.106,3.8,2.411-.551,3.289-2.2" transform="translate(47.702 21.508)" fill="#4f3131"/>
            <path id="Path_3932" data-name="Path 3932" d="M454.778,192.006c-.51-1.471-9.229-1.987-11.373-1.764s-2.586,1.785-2.66,3.418,9.106,5.213,12.314,3.34a4.866,4.866,0,0,0,1.719-4.995" transform="translate(47.577 20.531)" fill="#7a4939"/>
            <path id="Path_3933" data-name="Path 3933" d="M454.909,199.433c-.341,2.915,4.545,4.323,5.695,3.126s2.141-2.543,1.625-3.752-3.641-5.125-4.862-4.328-2.306,3.613-2.459,4.954" transform="translate(49.104 20.982)" fill="#7a4939"/>
            <path id="Path_3934" data-name="Path 3934" d="M440.409,224.821c.154-.3-.582-1.043-1.645-1.654s-2.049-.86-2.2-.558.582,1.043,1.644,1.654,2.05.862,2.2.558" transform="translate(47.124 24.016)" fill="#ea7b59"/>
            <path id="Path_3935" data-name="Path 3935" d="M435.142,216.981c.2-.342.327-.55.327-.55,2.737,3.931,4.685,6.245,10.96,9.373a6.512,6.512,0,0,0-.654.5c-3.759-1.4-9.995-6.519-10.633-9.319" transform="translate(46.973 23.363)" fill="#ea7b59"/>
            <path id="Path_3936" data-name="Path 3936" d="M512.192,282.912c3.045-3.193,5.57-9.728,4.827-12.03s-2.748-1.411-3.342-.445-1.263,8.169-1.634,9.876a3.831,3.831,0,0,0,.148,2.6" transform="translate(55.26 29.084)" fill="#ff9566"/>
            <path id="Path_3937" data-name="Path 3937" d="M510.227,285.394c2.517-2.384,3.962-7.264,2.84-8.982a2.067,2.067,0,0,0-3.416-.333c-.434.721.088,6.1,0,7.374a2.571,2.571,0,0,0,.578,1.941" transform="translate(54.997 29.721)" fill="#ff9566"/>
            <path id="Path_3938" data-name="Path 3938" d="M119.368,290.885H230.986l15.762,201.166H120.673Z" transform="translate(12.886 31.4)" fill="#b7bf47"/>
            <path id="Path_3939" data-name="Path 3939" d="M130.635,402.66l41.907-111.751H190l-6.78,20.131,6.162-1.233,5.546,99.015h19.31l10.272,38.826h8.217l7.4,24.651,3.081,19.515H119.336Z" transform="translate(12.882 31.403)" fill="#999b32"/>
            <g id="Group_1008" data-name="Group 1008" transform="translate(136.363 328.351)" opacity="0.58" style="mix-blend-mode: overlay;isolation: isolate">
              <g id="Group_1007" data-name="Group 1007">
                <g id="Group_1006" data-name="Group 1006" clip-path="url(#clip-path-17)">
                  <path id="Path_3940" data-name="Path 3940" d="M123.077,297.284l99.648-.925L233.765,483.9l-109.512.589Zm98.2.671-96.661.894L125.8,482.841l106.3-.575Z" transform="translate(-123.077 -296.36)" fill="#fff9f1"/>
                </g>
              </g>
            </g>
            <path id="Path_3941" data-name="Path 3941" d="M219.524,290.885h28.2l12.315,201.166h-29.6Z" transform="translate(23.697 31.4)" fill="#a5a53a"/>
            <g id="Group_1011" data-name="Group 1011" transform="translate(254.799 353.115)" opacity="0.42" style="mix-blend-mode: overlay;isolation: isolate">
              <g id="Group_1010" data-name="Group 1010">
                <g id="Group_1009" data-name="Group 1009" clip-path="url(#clip-path-18)">
                  <path id="Path_3942" data-name="Path 3942" d="M229.974,318.711h13.8l8.49,141.972H237.778Z" transform="translate(-229.974 -318.711)" fill="#fff9f1"/>
                </g>
              </g>
            </g>
            <path id="Path_3943" data-name="Path 3943" d="M222.065,290.885,232.9,492.051h-4.19L217.794,290.885Z" transform="translate(23.51 31.4)" fill="#999b32"/>
            <path id="Path_3944" data-name="Path 3944" d="M129.327,373.6C94.75,384.561,9.283,398.926,9.283,398.926l.487,1.461H142.719Z" transform="translate(1.002 40.33)" fill="#7c3552"/>
            <path id="Path_3945" data-name="Path 3945" d="M137.335,385.839l5.339,13.228H9.724l-.025-.079Z" transform="translate(1.047 41.651)" fill="#602540"/>
            <path id="Path_3946" data-name="Path 3946" d="M123.88,362.014c27.169-15.964,29.466-19.747,34.265-29.693s8.818-30.5-1.492-31.147-28.888,33.933-36.953,33.254-10.831,36.406,4.18,27.586" transform="translate(12.212 32.51)" fill="#eaddbe"/>
            <path id="Path_3947" data-name="Path 3947" d="M117.4,334.428c1.656,3.224,8.074,6.552,11.712,2.944,15.232-15.1,17.188-28.965,24.994-33.073.862-.454,7.343.619,7.746-.4,3.086,6.476-.086,20.013-3.708,27.516-4.8,9.946-7.1,13.727-34.266,29.693-13.47,7.915-12.622-21.121-6.478-26.676" transform="translate(12.212 32.805)" fill="#d8c5a0"/>
            <path id="Path_3948" data-name="Path 3948" d="M146.8,311.781c5.965-10.836,13.849-15.089,13.849-15.089s21.428-6.7,28.489,11.322-17.045,73.78-21.184,84.251-8.766,13.879-32.142,12.175l-19.723-21.428c22.158-17.776,26.8-64.131,30.71-71.231" transform="translate(12.532 31.896)" fill="#eaddbe"/>
            <path id="Path_3949" data-name="Path 3949" d="M135.628,351.025c-1.609,12.069,12.047,24.4,17.132,24.008,8.131-.628,18.908-30.9,27.732-56.355a63.809,63.809,0,0,0,3.72-18.589,19.736,19.736,0,0,1,4.928,7.428c7.062,18.019-17.045,73.779-21.184,84.249s-8.766,13.879-32.142,12.175l-19.723-21.428c9.056-7.266,15.186-19.306,19.535-31.489" transform="translate(12.532 32.394)" fill="#d8c5a0"/>
            <path id="Path_3950" data-name="Path 3950" d="M143.131,326.049,105.877,322.4,68.622,328.24l38.933,2.2,35.813-3.013Z" transform="translate(7.408 34.802)" fill="#dbc8a2"/>
            <path id="Path_3951" data-name="Path 3951" d="M97.211,323.272l5.58-.875,37.255,3.653.237,1.382-5.606.472Z" transform="translate(10.494 34.802)" fill="#d3bb92"/>
            <path id="Path_3952" data-name="Path 3952" d="M97.566,269.431l9.5,58.682-37.255,5.844L57.633,281.606Z" transform="translate(6.221 29.085)" fill="#eaddbe"/>
            <path id="Path_3953" data-name="Path 3953" d="M97.566,269.431,69.808,333.958,57.633,281.606Z" transform="translate(6.221 29.085)" fill="#f4e8ce"/>
            <path id="Path_3954" data-name="Path 3954" d="M90.856,270.384l3.123-.953,9.5,58.684-3.752.588Z" transform="translate(9.808 29.084)" fill="#dbc8a2"/>
            <path id="Path_3955" data-name="Path 3955" d="M158.039,363.619c23.358-21.154,24.861-23.384,27.54-34.1s2.435-31.654-7.792-30.194-21.184,37.5-29.22,38.472-3.434,37.507,9.472,25.82" transform="translate(15.607 32.304)" fill="#eaddbe"/>
            <path id="Path_3956" data-name="Path 3956" d="M148.567,336.7c5.1-.618,11.372-15.35,17.889-26.41,3.756-6.373-8.895,25.847-16.931,26.821-6.309.764-4.825,23.438,2.348,27.495-7.988-2.482-9.886-27.108-3.306-27.906" transform="translate(15.608 33.405)" fill="#d8c5a0"/>
            <path id="Path_3957" data-name="Path 3957" d="M157.926,346.373c23.358-21.154,24.837-25.323,27.515-36.037.258-1.033.489-2.162.686-3.355,1.521,6.668.938,15.759-.548,21.706-2.679,10.714-4.158,14.884-27.515,36.037-11.053,10.01-16.024-16.751-12.18-25.26,2.035,7.172,6.181,12.217,12.042,6.909" transform="translate(15.609 33.138)" fill="#d8c5a0"/>
            <path id="Path_3958" data-name="Path 3958" d="M122.735,332.939c-14.244-5.5-43.725-4.571-43.725-4.571l3.7,5.135s34.166,28.667,42.395,25.54c8.564-3.255,3.417-23.872-2.368-26.1" transform="translate(8.529 35.44)" fill="#ff9566"/>
            <path id="Path_3959" data-name="Path 3959" d="M160.173,335.172c-7.731-13.232-25.043-25.1-25.043-25.1l-7.829,5.38s18.024,48.129,26.114,49.9,9.829-24.926,6.757-30.182" transform="translate(13.742 33.471)" fill="#ffb882"/>
            <path id="Path_3960" data-name="Path 3960" d="M153.553,348.532c3.878.851,6.291-4.843,7.421-11.578,1.834,8.233-.314,29.465-7.56,27.875-8.088-1.775-26.113-49.905-26.113-49.905s20.879,32.43,26.252,33.608" transform="translate(13.742 33.995)" fill="#ff9566"/>
            <path id="Path_3961" data-name="Path 3961" d="M124.2,236.575s-.131.729-.271,1.927a6.831,6.831,0,0,1,.271-1.927" transform="translate(13.377 25.538)" fill="#ce5230"/>
            <path id="Path_3962" data-name="Path 3962" d="M123.958,240.228a7.676,7.676,0,0,0,.82,3.552c1.46,2.922,9.313,4.017,5.479-8.766s7.122-14.427,7.122-14.427-6.94,6.026,1.1,9.313,4.2-7.123,12.418-8.4,10.775,11.139,10.775,11.139,3.287-7.669,14.792-3.287,4.019,13.515,4.019,13.515,10.775,1.826,11.5,16.071-7.123,8.948-7.123,8.948c1.279,8.766-6.209,12.785-6.209,12.785s-2.009,3.652-3.287,12.965l-32.689-29.949c-20.66,5.747-19.519-16.638-18.717-23.459" transform="translate(13.344 23.812)" fill="#7a4939"/>
            <path id="Path_3963" data-name="Path 3963" d="M147.194,258.419c14.548-6.846,28.085-15.282,25.25-29.662-.088-.443-.222-.864-.331-1.3a21,21,0,0,1,4.214,1.151c11.5,4.382,4.019,13.514,4.019,13.514s10.774,1.826,11.5,16.071-7.123,8.948-7.123,8.948c1.279,8.766-6.209,12.785-6.209,12.785s-2.009,3.652-3.287,12.965l-32.689-29.949c-10.833,3.013-15.667-1.711-17.7-7.868,4.382,6.219,8.387,9.916,22.356,3.343" transform="translate(13.476 24.554)" fill="#603428"/>
            <path id="Path_3964" data-name="Path 3964" d="M168.774,270.53l7.3,29.767c-7.439,1.065-14.109,5.062-20.088,11.688l-3.47-31.959Z" transform="translate(16.464 29.203)" fill="#ffb882"/>
            <path id="Path_3965" data-name="Path 3965" d="M101.733,330.908l8.766-3.9c18.992,5.113,49.673,67.2,49.673,67.2s-7.791,10.958-16.557,10.958H121.457l-11.445-53.327L86.393,403.227l-1.948-.731s12.662-60.874,17.288-71.588" transform="translate(9.116 35.3)" fill="#7c3552"/>
            <path id="Path_3966" data-name="Path 3966" d="M111.03,333.615s11.845,7.4,21.729,13.8c14.317,19.779,27.323,46.093,27.323,46.093s-7.791,10.958-16.557,10.958H121.366l-11.444-53.326L86.3,402.513l-1.027-.386Z" transform="translate(9.205 36.013)" fill="#602540"/>
            <path id="Path_3967" data-name="Path 3967" d="M214.119,398.573H118.505c-16.919,0-21.783,36-4.863,36h95.613c-8.638-4.846-7.443-30.289,4.864-36" transform="translate(11.132 43.025)" fill="#ceb995"/>
            <path id="Path_3968" data-name="Path 3968" d="M129.227,396.971H32.491c-19.216-.578-21.336,38.975-2.12,39.553h96.736c-16.475-.5-14.356-40.048,2.12-39.553" transform="translate(1.832 42.851)" fill="#ffb94a"/>
            <path id="Path_3969" data-name="Path 3969" d="M222.6,396.97H33.262l-.793,3.748h189.34a2.609,2.609,0,0,0,2.521-1.874h0a1.576,1.576,0,0,0-1.727-1.874" transform="translate(3.505 42.852)" fill="#ffb94a"/>
            <path id="Path_3970" data-name="Path 3970" d="M220.857,429.731H31.85L31,432.986H220.007a2.64,2.64,0,0,0,2.549-1.628c.235-.9-.526-1.628-1.7-1.628" transform="translate(3.346 46.389)" fill="#ffb94a"/>
            <path id="Path_3971" data-name="Path 3971" d="M214.7,396.969H113.683l-.423,3.748H214.282c.626,0,1.228-.839,1.345-1.874h0c.116-1.035-.3-1.874-.922-1.874" transform="translate(12.226 42.852)" fill="#ef7335"/>
            <path id="Path_3972" data-name="Path 3972" d="M213.773,429.73H112.93l-.454,3.255H213.32c.626,0,1.235-.729,1.359-1.628s-.28-1.628-.906-1.628" transform="translate(12.142 46.388)" fill="#ef7335"/>
            <path id="Path_3973" data-name="Path 3973" d="M133.183,399.622H36.447c-19.216-.492-21.336,33.193-2.12,33.686h96.736c-23.4-1.515-21.283-35.2,2.12-33.686" transform="translate(2.259 43.133)" fill="#ef7335"/>
            <path id="Path_3974" data-name="Path 3974" d="M129.57,400.74l-85.442.421c-17.2-.461-19.092,31.013-1.9,31.472h86.56c-14.742-.394-13.961-32.288.78-31.893" transform="translate(3.265 43.259)" fill="#ddcba6"/>
            <path id="Path_3975" data-name="Path 3975" d="M116.7,404.576H48.722c-13.5-.348-14.995,23.465-1.49,23.813h67.979c-11.577-.3-10.087-24.112,1.49-23.814" transform="translate(4.082 43.673)" fill="#eaddbe"/>
            <path id="Path_3976" data-name="Path 3976" d="M147.175,432.086H10.629c-8.461,0-8.57,44.721-.109,44.721H147.067c-10.941,0-10.833-44.721.109-44.721" transform="translate(0.456 46.643)" fill="#5e85bc"/>
            <path id="Path_3977" data-name="Path 3977" d="M232.636,436.835h-97.95c-17.333,0-17.416,34.2-.082,34.2h97.949c-9.508-4.6-11.748-28.773.083-34.2" transform="translate(13.131 47.155)" fill="#ddcba6"/>
            <path id="Path_3978" data-name="Path 3978" d="M155.132,463.569c-13.406,0-13.342-20.594.064-20.594h68.652c-2.659,6.124-2.249,14.555.393,20.594Z" transform="translate(15.664 47.818)" fill="#eaddbe"/>
            <path id="Path_3979" data-name="Path 3979" d="M231.949,432.087H119.029l-.019,7.892H231.93c1.45,0,2.63-1.766,2.635-3.945s-1.166-3.946-2.616-3.946" transform="translate(12.847 46.643)" fill="#4b6f9b"/>
            <path id="Path_3980" data-name="Path 3980" d="M231.868,465.328H118.948l-.019,7.892h112.92c1.45,0,2.63-1.767,2.636-3.945s-1.167-3.947-2.617-3.947" transform="translate(12.838 50.231)" fill="#4b6f9b"/>
            <path id="Path_3981" data-name="Path 3981" d="M135.453,476.808H116.635c-6.483-8.439-6.415-36.282.109-44.721h18.819c-10.942,0-11.051,44.721-.109,44.721" transform="translate(12.07 46.643)" fill="#4b6f9b"/>
            <g id="Group_1014" data-name="Group 1014" transform="translate(16.759 482.851)" style="mix-blend-mode: overlay;isolation: isolate">
              <g id="Group_1013" data-name="Group 1013">
                <g id="Group_1012" data-name="Group 1012" clip-path="url(#clip-path-19)">
                  <path id="Path_3982" data-name="Path 3982" d="M15.126,454.212c0-8.49,1.388-18.405,5.3-18.405h97.354v1.631c-2.937,0-5.153,7.2-5.153,16.738,0,9.394,2.183,16.477,5.077,16.477v1.632H20.349c-3.855,0-5.223-9.736-5.223-18.073m96.029-.037c0-6.823,1.14-13.69,3.621-16.738H20.426c-2.111,0-3.828,7.525-3.828,16.774,0,10.291,1.907,16.441,3.75,16.441h94.366c-2.437-3.016-3.56-9.77-3.56-16.477" transform="translate(-15.127 -435.806)" fill="#ddcba6"/>
                </g>
              </g>
            </g>
            <path id="Path_3983" data-name="Path 3983" d="M70.079,397.382H88.7s2.6-3.013-.685-4.657-17.941,4.657-17.941,4.657" transform="translate(7.565 42.364)" fill="#f4e6c9"/>
            <path id="Path_3984" data-name="Path 3984" d="M0,384.206l8.753,16.44s3.882.881,3.788-2.792S0,384.206,0,384.206" transform="translate(0 41.474)" fill="#f4e6c9"/>
            <g id="Group_1017" data-name="Group 1017" transform="translate(162.803 299.733)" opacity="0.6" style="mix-blend-mode: multiply;isolation: isolate">
              <g id="Group_1016" data-name="Group 1016">
                <g id="Group_1015" data-name="Group 1015" clip-path="url(#clip-path-20)">
                  <path id="Path_3985" data-name="Path 3985" d="M156.551,325.361c-7.113-1.549-9.512-9.007-9.61-18.339a14.939,14.939,0,0,1,3.519-2.067,37.3,37.3,0,0,1,4.9-4.289l-2.241-20.639,16.254-9.5,7.3,29.768c-.048.007-.093.02-.141.027a17.78,17.78,0,0,1,3.516,2.236c2.195.6,3.758,2.5,4.824,5.14-11.187,2.209-18.118,19.884-28.327,17.661" transform="translate(-146.941 -270.53)" fill="#c94343"/>
                </g>
              </g>
            </g>
            <path id="Path_3986" data-name="Path 3986" d="M167.425,249.623c5.463,21.855,2.009,42.734,2.009,42.734s-14.792,8.949-23.924,9.132c0,0-8.4-34.882-5.113-48.761s25.933-7.488,27.028-3.1" transform="translate(15.073 26.369)" fill="#ffb882"/>
            <path id="Path_3987" data-name="Path 3987" d="M163.036,279.524c-1.649-19.534-2.876-32.2,3.1-29.3s3.924,24.876,3.924,24.876Z" transform="translate(17.453 26.966)" fill="#603428"/>
            <path id="Path_3988" data-name="Path 3988" d="M141.272,267.83c-.16-1.353.225-2.51.86-2.585s1.276.962,1.436,2.313-.226,2.509-.86,2.585-1.276-.962-1.436-2.313" transform="translate(15.246 28.632)" fill="#633d37"/>
            <path id="Path_3989" data-name="Path 3989" d="M150.4,266.532c-.16-1.353.226-2.509.86-2.584s1.276.961,1.436,2.312-.226,2.509-.86,2.585-1.276-.961-1.436-2.313" transform="translate(16.232 28.492)" fill="#633d37"/>
            <path id="Path_3990" data-name="Path 3990" d="M134.333,268.96l2.765,10,22-2.276.481-8.984,16.112-2.336,3.848,4.825,3.246-2.877-5.05-3.668Z" transform="translate(14.501 28.46)" fill="#eaddbe"/>
            <path id="Path_3991" data-name="Path 3991" d="M142.233,268.722l-6.642.89,2.123,7.464,4.862-.685Z" transform="translate(14.637 29.008)" fill="#ffb882"/>
            <path id="Path_3992" data-name="Path 3992" d="M142.233,268.583l-6.642.89,2.123,7.464,4.862-.685Z" transform="translate(14.637 28.993)" fill="#ffb882"/>
            <path id="Path_3993" data-name="Path 3993" d="M142.361,276.222l-1.683.237-4.913-7.07,2.084-.279Z" transform="translate(14.656 29.05)" fill="#ffc69f"/>
            <path id="Path_3994" data-name="Path 3994" d="M166.516,267.363c1.908-5.211,9.193-4.07,7.907-.2s-6.7,11-8.117,9.854-.314-8.232.209-9.659" transform="translate(17.877 28.482)" fill="#ffb882"/>
            <path id="Path_3995" data-name="Path 3995" d="M142.989,269.71c-.216-.135-3.422,13.3-3.614,14.474s7.586-1.171,7.586-1.171-3.373-12.931-3.972-13.3" transform="translate(15.045 29.115)" fill="#ffb882"/>
            <path id="Path_3996" data-name="Path 3996" d="M167.771,268.47c1.091-2.983,5.262-2.329,4.526-.111s-3.836,6.294-4.646,5.639-.179-4.712.12-5.529" transform="translate(18.055 28.764)" fill="#db5b3e"/>
            <path id="Path_3997" data-name="Path 3997" d="M167.518,270.8c.695-1.9,3.345-1.481,2.877-.071s-2.439,4-2.954,3.586-.115-3,.076-3.516" transform="translate(18.048 29.094)" fill="#ffb882"/>
            <path id="Path_3998" data-name="Path 3998" d="M143.687,268.621l2.259,8.08,10.477-1.369.617-8.218Z" transform="translate(15.511 28.834)" fill="#ffb882"/>
            <path id="Path_3999" data-name="Path 3999" d="M144.891,268.388l4.472-.5,6.725,7.392-4.406.576Z" transform="translate(15.641 28.917)" fill="#ffc69f"/>
            <path id="Path_4000" data-name="Path 4000" d="M142.989,269.71a4.643,4.643,0,0,1,.594,1.38c-1.016,3.87-2.767,11.278-2.907,12.135s3.9-.147,6.142-.76c.091.347.143.547.143.547s-7.777,2.342-7.586,1.171,3.4-14.609,3.614-14.474" transform="translate(15.045 29.115)" fill="#ff9566"/>
            <path id="Path_4001" data-name="Path 4001" d="M140.012,271.508c-.7.068-1.394-.9-1.757-2.3l3.046-.408c-.069,1.5-.568,2.638-1.289,2.708" transform="translate(14.924 29.016)" fill="#633d37"/>
            <path id="Path_4002" data-name="Path 4002" d="M151.074,270.956c-.832.062-1.622-1.265-1.895-3.065l3.312-.373c.024,1.879-.566,3.375-1.417,3.438" transform="translate(16.104 28.878)" fill="#633d37"/>
            <path id="Path_4003" data-name="Path 4003" d="M160.2,262.857a69.255,69.255,0,0,1-14.064-1.006l-.56-5.9s12.819,2.216,13.939,3.311.685,3.6.685,3.6" transform="translate(15.714 27.629)" fill="#7a4939"/>
            <path id="Path_4004" data-name="Path 4004" d="M136.97,264.4a24.476,24.476,0,0,0,7.963-2.347l-.534-5.893s-7.069,3.427-7.556,4.616.127,3.624.127,3.624" transform="translate(14.752 27.652)" fill="#7a4939"/>
            <path id="Path_4005" data-name="Path 4005" d="M145.062,284.168l11.711-3.133s.5,7.171-5.353,8.3-6.359-5.167-6.359-5.167" transform="translate(15.659 30.337)" fill="#472922"/>
            <path id="Path_4006" data-name="Path 4006" d="M146.406,286.189a6.757,6.757,0,0,1-.593-2.107l10.048-2.689a9.871,9.871,0,0,1-.191,2.317Z" transform="translate(15.74 30.376)" fill="#fff6e3"/>
            <path id="Path_4007" data-name="Path 4007" d="M77.394,303.881c1.466-.243,2.306-2.547,1.876-5.15a6.974,6.974,0,0,0-1.345-3.219,5.737,5.737,0,0,1,2.247,4.009c.43,2.6-.41,4.907-1.876,5.15a2.322,2.322,0,0,1-2.088-1.053,1.772,1.772,0,0,0,1.187.263" transform="translate(8.226 31.9)" fill="#dbc8a2"/>
            <path id="Path_4008" data-name="Path 4008" d="M76.329,293.061c1.415-.234,2.877,1.082,3.83,3.172-.9-1.343-2.036-2.123-3.145-1.939-1.993.329-3.116,3.576-2.507,7.254a11.438,11.438,0,0,0,.879,2.888,10.517,10.517,0,0,1-1.563-4.122c-.608-3.676.514-6.925,2.507-7.254" transform="translate(7.951 31.632)" fill="#d3bb92"/>
            <path id="Path_4009" data-name="Path 4009" d="M112.557,311.729c-.393,3.246.6,5.3,1.523,5.666s4.037-.853,4.559-1.889-5.736-6.641-6.083-3.777" transform="translate(12.141 33.563)" fill="#ff9566"/>
            <path id="Path_4010" data-name="Path 4010" d="M113.465,309.945c.274,6.095,1.027,6.642,2.192,7.189s4.793-.2,5.2-1.163-.275-3.356-1.233-3.15a16.716,16.716,0,0,1-2.123.274Z" transform="translate(12.248 33.458)" fill="#ffb882"/>
            <path id="Path_4011" data-name="Path 4011" d="M116.375,308.493c1.61-2.465,14.1-2.362,20.74,2.465l-6.778,6.778c-2.216-3.594-8.02-3.286-11.647-2.978s-3.927-3.8-2.315-6.265" transform="translate(12.462 33.13)" fill="#ffb882"/>
            <path id="Path_4012" data-name="Path 4012" d="M115.814,311.011c.274,6.095,1.027,6.642,2.192,7.189s4.793-.2,5.2-1.163-.274-3.356-1.233-3.15a16.719,16.719,0,0,1-2.123.274Z" transform="translate(12.502 33.573)" fill="#ffb882"/>
            <path id="Path_4013" data-name="Path 4013" d="M119.741,307.207c-4.192.786-7.185,2.366-8.579,3.9a18.341,18.341,0,0,0-3.184,6.325c-.058.891,2.344,1.993,2.857.822s2.12-4.679,2.555-4.824,4.705-1.958,4.909-1.929a33.884,33.884,0,0,0,1.441-4.29" transform="translate(11.656 33.162)" fill="#ffb882"/>
            <path id="Path_4014" data-name="Path 4014" d="M87.584,336.537c-9.347-4.006-14.38-2.26-16.639-8.731l14.174.548Z" transform="translate(7.658 35.386)" fill="#ff9566"/>
            <path id="Path_4015" data-name="Path 4015" d="M76.956,331.5c-3.15-1.78-3.9-4.314-3.9-5.957s-2.534-2.054-2.6-.479a8.522,8.522,0,0,0,1.232,4.519c.684,1.027,5.273,1.917,5.273,1.917" transform="translate(7.604 34.983)" fill="#ff9566"/>
            <path id="Path_4016" data-name="Path 4016" d="M80.169,331.744c-3.15-1.78-3.9-4.314-3.9-5.957s-2.534-2.054-2.6-.48a8.544,8.544,0,0,0,1.232,4.52c.685,1.027,5.273,1.917,5.273,1.917" transform="translate(7.951 35.009)" fill="#ff9566"/>
            <path id="Path_4017" data-name="Path 4017" d="M83.569,332.053c-3.151-1.78-3.9-4.314-3.9-5.957s-2.534-2.054-2.6-.48a8.543,8.543,0,0,0,1.232,4.52c.685,1.027,5.274,1.917,5.274,1.917" transform="translate(8.318 35.043)" fill="#ff9566"/>
          </g>
        </g>
      </g>
    </g>
    <g id="Group_1027" data-name="Group 1027" transform="matrix(0.914, -0.407, 0.407, 0.914, 491.159, 260.243)">
      <g id="Group_1026" data-name="Group 1026" transform="translate(0 0)" clip-path="url(#clip-path-21)">
        <path id="Path_4018" data-name="Path 4018" d="M13.923,3.834a28.074,28.074,0,1,0,38.4,10.088,28.074,28.074,0,0,0-38.4-10.088M34.83,39.643a13.391,13.391,0,1,1,4.812-18.316A13.392,13.392,0,0,1,34.83,39.643" transform="translate(66.765 11.946)" fill="#f7931e"/>
        <path id="Path_4019" data-name="Path 4019" d="M17.141,0,0,10.008,12.062,23.117l10.567-6.169Z" transform="translate(97.035 53.453)" fill="#f7931e"/>
        <path id="Path_4020" data-name="Path 4020" d="M5.487,23.117,22.628,13.108,10.567,0,0,6.169Z" transform="translate(69.475 2.54)" fill="#f7931e"/>
        <path id="Path_4021" data-name="Path 4021" d="M23.117,17.141,13.108,0,0,12.062,6.169,22.628Z" transform="translate(57.555 42.021)" fill="#f7931e"/>
        <path id="Path_4022" data-name="Path 4022" d="M0,5.487,10.008,22.628,23.117,10.567,16.947,0Z" transform="translate(108.467 14.461)" fill="#f7931e"/>
        <path id="Path_4023" data-name="Path 4023" d="M15.863,19.937,20.907.74,3.108,0,0,11.834Z" transform="translate(55.015 23.655)" fill="#f7931e"/>
        <path id="Path_4024" data-name="Path 4024" d="M5.044,0,0,19.2l17.8.739L20.907,8.1Z" transform="translate(113.217 35.518)" fill="#f7931e"/>
        <path id="Path_4025" data-name="Path 4025" d="M0,15.864l19.2,5.044.739-17.8L8.1,0Z" transform="translate(90.533 0)" fill="#f7931e"/>
        <path id="Path_4026" data-name="Path 4026" d="M19.938,5.044.74,0,0,17.8l11.835,3.109Z" transform="translate(78.669 58.203)" fill="#f7931e"/>
        <path id="Path_4027" data-name="Path 4027" d="M19.724.078A18.06,18.06,0,1,0,36.045,19.724,18.06,18.06,0,0,0,19.724.078M17.268,26.64a8.614,8.614,0,1,1,9.371-7.785,8.615,8.615,0,0,1-9.371,7.785" transform="translate(7.437 31.131)" fill="#f7931e"/>
        <path id="Path_4028" data-name="Path 4028" d="M12.715,1.175,0,0,1.409,11.373l7.838.724Z" transform="translate(17.877 62.278)" fill="#f7931e"/>
        <path id="Path_4029" data-name="Path 4029" d="M0,10.922,12.715,12.1,11.307.725,3.469,0Z" transform="translate(20.47 23.314)" fill="#f7931e"/>
        <path id="Path_4030" data-name="Path 4030" d="M10.922,12.715,12.1,0,.724,1.409,0,9.246Z" transform="translate(0 41.191)" fill="#f7931e"/>
        <path id="Path_4031" data-name="Path 4031" d="M1.176,0,0,12.714l11.373-1.408L12.1,3.469Z" transform="translate(38.963 43.784)" fill="#f7931e"/>
        <path id="Path_4032" data-name="Path 4032" d="M5.27,15.205l9.822-8.159L6.055,0,0,5.03Z" transform="translate(6.351 26.888)" fill="#f7931e"/>
        <path id="Path_4033" data-name="Path 4033" d="M9.822,0,0,8.159l9.037,7.046,6.055-5.03Z" transform="translate(29.618 55.596)" fill="#f7931e"/>
        <path id="Path_4034" data-name="Path 4034" d="M0,5.27l8.159,9.822,7.046-9.037L10.176,0Z" transform="translate(32.282 29.666)" fill="#f7931e"/>
        <path id="Path_4035" data-name="Path 4035" d="M15.205,9.822,7.046,0,0,9.037l5.03,6.055Z" transform="translate(3.574 52.931)" fill="#f7931e"/>
      </g>
    </g>
    <g id="Group_1030" data-name="Group 1030" transform="translate(270.444 176.75)">
      <path id="Path_4036" data-name="Path 4036" d="M80.833,81.933H57.573L63.93,104.64H74.476Z" transform="translate(-4.709 -6.702)" fill="#f7931e"/>
      <path id="Path_4037" data-name="Path 4037" d="M67.3,104.157l.747,4.205h3.907l.746-4.205Z" transform="translate(-5.505 -8.52)" fill="#f7931e"/>
      <g id="Group_1029" data-name="Group 1029">
        <g id="Group_1028" data-name="Group 1028" clip-path="url(#clip-path-22)">
          <path id="Path_4038" data-name="Path 4038" d="M68.259,29.8c-12.949,0-22.218,12.7-22.218,28.373S55.31,86.549,68.259,86.549s22.219-12.7,22.219-28.375S81.207,29.8,68.259,29.8M63.251,82.741C52.04,80.521,46.4,67.723,49.022,54.155S62.056,31.388,73.268,33.607,90.117,48.625,87.5,62.193,74.462,84.96,63.251,82.741" transform="translate(-3.766 -2.438)" fill="#f7931e"/>
          <path id="Path_4039" data-name="Path 4039" d="M74.466,87.366l-2.378-.126,2.551-22.282a17.091,17.091,0,0,1-8.6.025l3.328,21.273-2.542.506L61.7,59.232l2.56,1.057c.076.031,6.9,2.788,11.591-.036l2.568-1.543Z" transform="translate(-5.047 -4.802)" fill="#f7931e"/>
          <path id="Path_4040" data-name="Path 4040" d="M30.073,92.647c2.936-2.351,9.357-8.849,8.043-10s-9.355,3.923-12.291,6.274-4.507,4.967-3.192,6.121,4.5-.04,7.44-2.391" transform="translate(-1.813 -6.746)" fill="#f7931e"/>
          <path id="Path_4041" data-name="Path 4041" d="M118.493,83.04c-3.337-1.839-12.36-5.652-13.673-4.49s6.1,6.4,9.433,8.244,6.849,2.615,8.162,1.453-.585-3.367-3.922-5.206" transform="translate(-8.561 -6.407)" fill="#f7931e"/>
          <path id="Path_4042" data-name="Path 4042" d="M137.269,53.968c-3.16-.381-11.113-.572-11.389.641s7.334,2.9,10.494,3.278,5.892-.057,6.169-1.271-2.114-2.268-5.274-2.648" transform="translate(-10.296 -4.391)" fill="#f7931e"/>
          <path id="Path_4043" data-name="Path 4043" d="M58.254,5.21C58.691,8,60.617,14.818,62,14.723s1.166-7.027.73-9.818-1.643-5-3.03-4.9S57.818,2.42,58.254,5.21" transform="translate(-4.752 0)" fill="#f7931e"/>
          <path id="Path_4044" data-name="Path 4044" d="M7.2,62.659c3.556-.395,12.042-2.349,11.6-3.946S9.333,57.1,5.777,57.5-.391,59.2.049,60.793s3.592,2.26,7.147,1.866" transform="translate(0 -4.686)" fill="#f7931e"/>
          <path id="Path_4045" data-name="Path 4045" d="M111.952,7.021c-2.792,1.965-8.862,7.513-7.552,8.665s8.991-2.977,11.783-4.942,4.249-4.267,2.94-5.419-4.379-.269-7.171,1.7" transform="translate(-8.525 -0.394)" fill="#f7931e"/>
          <path id="Path_4046" data-name="Path 4046" d="M6.32,17.574c3.489,2.691,12.58,8.544,13.724,7.382,1.271-1.29-7.846-9.951-11.982-13.184C3.878,8.5.329,7.31.154,9.522,0,11.508,2.794,14.855,6.32,17.574" transform="translate(-0.012 -0.687)" fill="#f7931e"/>
        </g>
      </g>
    </g>
    <g id="Group_1031" data-name="Group 1031" transform="translate(133.051 457.112)">
      <rect id="Rectangle_411" data-name="Rectangle 411" width="64.365" height="38.086" transform="translate(0 0)" fill="#ffe1fb"/>
      <path id="Path_4047" data-name="Path 4047" d="M36.134,34.853l6.021,22.773L47.39,34.068Z" transform="translate(-2.956 -2.787)" fill="#ffe1fb"/>
    </g>
    <path id="Path_4072" data-name="Path 4072" d="M9.337,0,0,9.7l.829.823,9.337-9.7Z" transform="translate(716.452 541.353) rotate(45)" fill="#f7931e"/>
    <path id="Path_4073" data-name="Path 4073" d="M9.337,0,0,9.7l.829.824,9.337-9.7Z" transform="translate(797.21 539.824) rotate(45)" fill="#f7931e"/>
    <path id="Path_4075" data-name="Path 4075" d="M0,9.7l.829.824,9.337-9.7L9.337,0Z" transform="translate(770.29 540.334) rotate(45)" fill="#f7931e"/>
    <path id="Path_4077" data-name="Path 4077" d="M0,9.7l.829.824,9.337-9.7L9.337,0Z" transform="translate(689.533 541.863) rotate(45)" fill="#f7931e"/>
    <path id="Path_4078" data-name="Path 4078" d="M0,9.7l.829.824,9.337-9.7L9.337,0Z" transform="translate(743.371 540.843) rotate(45)" fill="#f7931e"/>
    <path id="Path_4079" data-name="Path 4079" d="M0,9.7l.829.824,9.337-9.7L9.337,0Z" transform="translate(662.613 542.372) rotate(45)" fill="#f7931e"/>
  </g>
</svg>
