<svg xmlns="http://www.w3.org/2000/svg" xmlns:xlink="http://www.w3.org/1999/xlink" width="749.237" height="665.724" viewBox="0 0 749.237 665.724">
  <defs>
    <clipPath id="clip-path">
      <rect id="Rectangle_414" data-name="Rectangle 414" width="329.165" height="178.728" fill="none"/>
    </clipPath>
    <clipPath id="clip-path-2">
      <rect id="Rectangle_434" data-name="Rectangle 434" width="749.237" height="479.599" fill="none"/>
    </clipPath>
    <clipPath id="clip-path-4">
      <path id="Path_4162" data-name="Path 4162" d="M103.192,38.971c6.933,5.686,11.762-.426,11.762-.426-2.839-2.113-5.066-2.833-6.78-2.833a5.532,5.532,0,0,0-4.982,3.259" transform="translate(-103.192 -35.712)" fill="none"/>
    </clipPath>
    <clipPath id="clip-path-6">
      <path id="Path_4166" data-name="Path 4166" d="M91,35.04s2.141,7.272,7.823,3.336c0,0-1.144-4.643-4.474-4.643A5.836,5.836,0,0,0,91,35.04" transform="translate(-91.005 -33.733)" fill="none"/>
    </clipPath>
    <clipPath id="clip-path-8">
      <rect id="Rectangle_417" data-name="Rectangle 417" width="17.18" height="16.341" fill="none"/>
    </clipPath>
    <clipPath id="clip-path-9">
      <rect id="Rectangle_418" data-name="Rectangle 418" width="14.73" height="16.394" fill="none"/>
    </clipPath>
    <clipPath id="clip-path-10">
      <path id="Path_4218" data-name="Path 4218" d="M496.2,76.4s32.285,25.857,42.027,59.664c0,0,3.576-41.563-18.166-66.7L506.035,69.2Z" transform="translate(-496.197 -69.195)" fill="none"/>
    </clipPath>
    <clipPath id="clip-path-12">
      <path id="Path_4241" data-name="Path 4241" d="M506.275,34.112s3.8,7.406,11.237,1.923A5.341,5.341,0,0,0,512.3,32.21a12.7,12.7,0,0,0-6.022,1.9" transform="translate(-506.275 -32.21)" fill="none"/>
    </clipPath>
    <clipPath id="clip-path-14">
      <path id="Path_4245" data-name="Path 4245" d="M521.556,35.989c5.938,4.751,7.939-2.2,7.939-2.2A5.2,5.2,0,0,0,526,32.077c-2.91,0-4.448,3.912-4.448,3.912" transform="translate(-521.556 -32.077)" fill="none"/>
    </clipPath>
    <clipPath id="clip-path-16">
      <path id="Path_4290" data-name="Path 4290" d="M245.313,28.07s3.989,7.557,11.559,1.834a5.483,5.483,0,0,0-5.316-3.861,12.9,12.9,0,0,0-6.243,2.027" transform="translate(-245.313 -26.043)" fill="none"/>
    </clipPath>
    <clipPath id="clip-path-18">
      <path id="Path_4294" data-name="Path 4294" d="M261.328,30.046c6.155,4.8,8.123-2.353,8.123-2.353a5.373,5.373,0,0,0-3.564-1.718c-3.014,0-4.559,4.07-4.559,4.07" transform="translate(-261.328 -25.976)" fill="none"/>
    </clipPath>
    <clipPath id="clip-path-20">
      <rect id="Rectangle_429" data-name="Rectangle 429" width="14.945" height="13.179" fill="none"/>
    </clipPath>
    <clipPath id="clip-path-21">
      <rect id="Rectangle_430" data-name="Rectangle 430" width="17.269" height="12.923" fill="none"/>
    </clipPath>
    <clipPath id="clip-path-22">
      <path id="Path_4346" data-name="Path 4346" d="M359.55,39.332s4.006,6.572,11.482,1.822a5.444,5.444,0,0,0-5.28-3.836,12.819,12.819,0,0,0-6.2,2.014" transform="translate(-359.55 -37.318)" fill="none"/>
    </clipPath>
    <clipPath id="clip-path-24">
      <path id="Path_4350" data-name="Path 4350" d="M375.151,41.055c5.1,4.538,8.068-2.338,8.068-2.338a5.335,5.335,0,0,0-3.54-1.706c-2.993,0-4.528,4.044-4.528,4.044" transform="translate(-375.151 -37.011)" fill="none"/>
    </clipPath>
  </defs>
  <g id="Group_1036" data-name="Group 1036" transform="translate(60.072)">
    <g id="Group_1035" data-name="Group 1035" clip-path="url(#clip-path)">
      <text id="Top" transform="translate(0 55.459)" fill="#474747" font-size="62" font-family="Impact"><tspan x="0" y="0">Top</tspan></text>
      <text id="Educators" transform="translate(0 151.677)" fill="#f7931e" font-size="79" font-family="Impact"><tspan x="0" y="0">Educators</tspan></text>
    </g>
  </g>
  <g id="Group_1088" data-name="Group 1088" transform="translate(0 186.125)">
    <g id="Group_1087" data-name="Group 1087" clip-path="url(#clip-path-2)">
      <g id="Group_1038" data-name="Group 1038">
        <g id="Group_1037" data-name="Group 1037" clip-path="url(#clip-path-2)">
          <path id="Path_4145" data-name="Path 4145" d="M108.828,369.911s4.534-.169,4.317,8.458,0,21.352,0,21.352h-4.317V384.816L95.891,399.721H51.461s2.373-8.2,23.294-7.98Z" transform="translate(10.183 73.194)" fill="#1e0401"/>
          <path id="Path_4146" data-name="Path 4146" d="M105.291,372.834V361.749L88,355.137l2.587,17.7L69.335,394.855h9.778a18.338,18.338,0,0,0,12.358-4.776c4.571-4.16,10.722-10.559,13.82-17.245" transform="translate(13.719 70.271)" fill="#fbb087"/>
          <path id="Path_4147" data-name="Path 4147" d="M78.869,143.484s-15.6,37.765-7.035,143.784S82.968,406.915,82.968,406.915l28.2-.447-6.549-262.984Z" transform="translate(13.706 28.391)" fill="#0f4088"/>
          <path id="Path_4148" data-name="Path 4148" d="M156.128,369.911s-4.534-.169-4.317,8.458,0,21.352,0,21.352h4.317V384.816l12.937,14.905H213.5s-2.373-8.2-23.294-7.98Z" transform="translate(30.038 73.194)" fill="#1e0401"/>
          <path id="Path_4149" data-name="Path 4149" d="M157.249,374.905l-11.108-23.623,17.291-6.611,8.52,30.234,21.253,22.02h-9.778a18.338,18.338,0,0,1-12.358-4.776c-4.571-4.16-10.722-10.559-13.82-17.245" transform="translate(28.917 68.2)" fill="#fbb087"/>
          <path id="Path_4150" data-name="Path 4150" d="M121.1,143.484s8.27,22.117,22.889,73.892c15.885,56.254,46.888,189.092,46.888,189.092l-30.142,1.581L77.518,163.818l7.966-20.334Z" transform="translate(15.339 28.391)" fill="#0f4088"/>
          <line id="Line_22" data-name="Line 22" x1="15.603" y1="44.536" transform="translate(105.279 228.313)" fill="none" stroke="#000" stroke-linecap="round" stroke-linejoin="round" stroke-width="0.457"/>
          <path id="Path_4151" data-name="Path 4151" d="M143.657,25.712s4.505,9.764,2.187,23.457C143.472,63.18,158.9,61.824,157.058,75.4c0,0-43.758,13-84.186-13.35,0,0-2.763-12.022,5.678-14.9,11.823-4.027,14.82-16.265,14.82-16.265Z" transform="translate(14.334 5.088)"/>
          <path id="Path_4152" data-name="Path 4152" d="M89.947,33.478C88.132,46.813,98.3,59.207,112.661,61.162s27.471-7.272,29.286-20.607-8.354-25.729-22.713-27.683S91.761,20.143,89.947,33.478" transform="translate(17.756 2.495)"/>
          <path id="Path_4153" data-name="Path 4153" d="M116.943,49.659,116.4,89.632,97.127,87.075l5.953-35.1Z" transform="translate(19.219 9.826)" fill="#fbb087"/>
          <path id="Path_4154" data-name="Path 4154" d="M99.206,71.617l14.982-11.1-11.895-6.852Z" transform="translate(19.63 10.619)" fill="#ee896c"/>
          <path id="Path_4155" data-name="Path 4155" d="M98.235,49.557A19.614,19.614,0,0,0,97.113,42.2c-1.183-3.279-3.229-6.543-7.129-5.3-6.637,2.113-1.842,13.106,4.449,14.79,1.85.495,3.748-.575,3.8-2.135" transform="translate(17.173 7.248)" fill="#ee896c"/>
          <path id="Path_4156" data-name="Path 4156" d="M122.588,18.249a29.207,29.207,0,0,0-13.469-2.377c-6.223.45-14.5,3.2-16.974,14.13-4.127,18.216-3.2,30.307,4.762,36.529,5.584,4.361,11.811,4.808,20.5,1.215,3.231-1.337,8.038-7.151,9.329-10.57l3.727-9.522s12.387-20.793-7.87-29.405" transform="translate(17.757 3.127)" fill="#fbb087"/>
          <path id="Path_4157" data-name="Path 4157" d="M99.377,41.012l-2.743,3.861,2.075,1.337" transform="translate(19.121 8.115)" fill="none" stroke="#000" stroke-linecap="round" stroke-linejoin="round" stroke-width="0.45"/>
          <path id="Path_4158" data-name="Path 4158" d="M100.056,27.531s.51,1.913-2.378,1.9a25.555,25.555,0,0,0-4.844.2A1.788,1.788,0,0,1,91,28.926a1.007,1.007,0,0,1,.168-1.315,7.286,7.286,0,0,1,5.043-1.794c3.426-.019,3.842,1.715,3.842,1.715" transform="translate(17.973 5.108)"/>
          <path id="Path_4159" data-name="Path 4159" d="M105.373,27.819s-1.189,1.694,2.749,2.561A63.526,63.526,0,0,1,116.269,33a3.126,3.126,0,0,0,2.675-.125.808.808,0,0,0,.111-1.324,19.357,19.357,0,0,0-8.007-4.217c-4.662-1.065-5.676.485-5.676.485" transform="translate(20.817 5.335)"/>
          <path id="Path_4160" data-name="Path 4160" d="M103.192,38.971s2.876-7.039,11.762-.426c0,0-4.83,6.114-11.762.426" transform="translate(20.419 7.066)" fill="#fff"/>
        </g>
      </g>
      <g id="Group_1040" data-name="Group 1040" transform="translate(123.611 42.778)">
        <g id="Group_1039" data-name="Group 1039" clip-path="url(#clip-path-4)">
          <path id="Path_4161" data-name="Path 4161" d="M105.235,37.984a3.03,3.03,0,1,0,3.715-2.264,3.076,3.076,0,0,0-3.715,2.264" transform="translate(-102.808 -35.729)"/>
        </g>
      </g>
      <g id="Group_1042" data-name="Group 1042">
        <g id="Group_1041" data-name="Group 1041" clip-path="url(#clip-path-2)">
          <path id="Path_4163" data-name="Path 4163" d="M114.839,38.746A9.655,9.655,0,0,0,112.1,36.98a10.423,10.423,0,0,0-3.134-.842,6.172,6.172,0,0,0-3.092.532,3.96,3.96,0,0,0-1.969,2.183l-.014.046a.44.44,0,0,1-.836-.276l.006-.017a4.735,4.735,0,0,1,2.487-2.619,6.842,6.842,0,0,1,3.471-.479,11.015,11.015,0,0,1,3.3.989,10.151,10.151,0,0,1,2.821,1.943.212.212,0,0,1,0,.3.216.216,0,0,1-.3,0" transform="translate(20.386 7.018)"/>
          <path id="Path_4164" data-name="Path 4164" d="M98.828,38.376s-1.877-7.62-7.822-3.336c0,0,2.141,7.272,7.822,3.336" transform="translate(18.007 6.675)" fill="#fff"/>
        </g>
      </g>
      <g id="Group_1044" data-name="Group 1044" transform="translate(109.012 40.408)">
        <g id="Group_1043" data-name="Group 1043" clip-path="url(#clip-path-6)">
          <path id="Path_4165" data-name="Path 4165" d="M96.789,36.538a2.318,2.318,0,1,1-4.51.132,2.318,2.318,0,1,1,4.51-.132" transform="translate(-90.753 -33.729)"/>
        </g>
      </g>
      <g id="Group_1052" data-name="Group 1052">
        <g id="Group_1051" data-name="Group 1051" clip-path="url(#clip-path-2)">
          <path id="Path_4167" data-name="Path 4167" d="M90.9,34.963a4.2,4.2,0,0,1,1.867-1.281,3.571,3.571,0,0,1,1.146-.171,3.479,3.479,0,0,1,1.164.2l-.034-.012a5.3,5.3,0,0,1,2.575,1.611,6.723,6.723,0,0,1,.878,1.252,6.833,6.833,0,0,1,.587,1.428.371.371,0,1,1-.715.2l0-.008-.006-.025a6.28,6.28,0,0,0-1.223-2.432,4.658,4.658,0,0,0-1.007-.921,4.713,4.713,0,0,0-1.23-.6l-.034-.012h0a3.164,3.164,0,0,0-1.973-.092A3.8,3.8,0,0,0,91.168,35.2a.18.18,0,0,1-.268-.24" transform="translate(17.978 6.631)"/>
          <path id="Path_4168" data-name="Path 4168" d="M95.156,47.555l11.576.864a5.536,5.536,0,0,1-5.941,3.616,6.62,6.62,0,0,1-5.635-4.48" transform="translate(18.829 9.41)" fill="#fff"/>
          <g id="Group_1047" data-name="Group 1047" transform="translate(121.587 38.679)" opacity="0.22">
            <g id="Group_1046" data-name="Group 1046">
              <g id="Group_1045" data-name="Group 1045" clip-path="url(#clip-path-8)">
                <path id="Path_4169" data-name="Path 4169" d="M112.444,32.29,101.5,42.9s1.827,5.589,6.2,5.737l10.975-10.3s-1.562-5.6-6.239-6.046" transform="translate(-101.503 -32.29)" fill="#fff"/>
              </g>
            </g>
          </g>
          <g id="Group_1050" data-name="Group 1050" transform="translate(103.021 35.314)" opacity="0.22">
            <g id="Group_1049" data-name="Group 1049">
              <g id="Group_1048" data-name="Group 1048" clip-path="url(#clip-path-9)">
                <path id="Path_4170" data-name="Path 4170" d="M95.556,29.482,86,40.3s1.431,5.529,5.156,5.577l9.575-10.508s-1.205-5.544-5.177-5.885" transform="translate(-86.004 -29.481)" fill="#fff"/>
              </g>
            </g>
          </g>
          <path id="Path_4171" data-name="Path 4171" d="M101.449,39.181a8.837,8.837,0,1,0,10.176-7.254A8.836,8.836,0,0,0,101.449,39.181Z" transform="translate(20.049 6.293)" fill="none" stroke="#d86539" stroke-miterlimit="10" stroke-width="0.718"/>
          <path id="Path_4172" data-name="Path 4172" d="M86.017,36.585c-.794,4.815,1.87,9.282,5.951,9.978s8.032-2.642,8.826-7.458-1.87-9.282-5.951-9.978S86.811,31.77,86.017,36.585Z" transform="translate(16.993 5.745)" fill="none" stroke="#d86539" stroke-miterlimit="10" stroke-width="0.718"/>
          <path id="Path_4173" data-name="Path 4173" d="M102.042,38.1a4.163,4.163,0,0,0-3.712-.623" transform="translate(19.457 7.374)" fill="none" stroke="#d86539" stroke-miterlimit="10" stroke-width="0.718"/>
          <line id="Line_23" data-name="Line 23" x1="5.764" y1="4.647" transform="translate(138.806 49.131)" fill="none" stroke="#d86539" stroke-miterlimit="10" stroke-width="0.718"/>
          <path id="Path_4174" data-name="Path 4174" d="M120.733,50.863c.023-1.687-4.793-15.248,2.3-31.557,0,0,6.476-.773,7.276,11.062,1.282,18.984-9.576,20.494-9.576,20.494" transform="translate(23.578 3.818)"/>
          <path id="Path_4175" data-name="Path 4175" d="M117.614,51.988a20.64,20.64,0,0,1,3.965-6.746c2.435-2.742,5.709-5.134,9.034-2.4C136.276,47.5,127.3,56.367,120.5,55.557c-2-.238-3.439-2.024-2.882-3.568" transform="translate(23.248 8.238)" fill="#fbb087"/>
          <path id="Path_4176" data-name="Path 4176" d="M127.78,46.7c-4.59-2.294-7.89,2.756-7.89,2.756" transform="translate(23.723 9.122)" fill="none" stroke="#000" stroke-linecap="round" stroke-linejoin="round" stroke-width="0.45"/>
          <path id="Path_4177" data-name="Path 4177" d="M130.746,22s-8.891,8.637-40.868,3.485c0,0,6.391-12.143,22.943-12.767S130.746,22,130.746,22" transform="translate(17.784 2.51)"/>
          <path id="Path_4178" data-name="Path 4178" d="M121.828,79.385s-8.209,27.854-66.721,70.762l-15.23-19.873L91.012,74.79Z" transform="translate(7.89 14.799)" fill="#d8553d"/>
          <path id="Path_4179" data-name="Path 4179" d="M14.041,87.812l10.788-5.556,15.984,23.2c-3.786,2.517-8.783,5.291-12.6,7.795Z" transform="translate(2.778 16.276)" fill="#fbb087"/>
          <path id="Path_4180" data-name="Path 4180" d="M29.38,86.132l.7-2.508a22.351,22.351,0,0,0,.4-10.35l-1.2-6.044a2.368,2.368,0,0,0-3.161-1.754,3.031,3.031,0,0,0-1.955,2.772l-.133,6.539L14.285,57.167a1.833,1.833,0,0,0-2.669-.671l-.61.42a1.832,1.832,0,0,0-.647,2.229l6.805,13.561-9.972-14.5a1.833,1.833,0,0,0-2.7-.5l-.43.335a1.832,1.832,0,0,0-.443,2.387l8.094,13.311L3.35,64.988A1.834,1.834,0,0,0,.5,65.145l-.138.192A1.831,1.831,0,0,0,.386,67.51l8.041,9.715L3.142,73.183a1.833,1.833,0,0,0-2.731,2.44l19.5,22.068,5.329-4.849a14.259,14.259,0,0,0,4.137-6.71" transform="translate(0 11.115)" fill="#fbb087"/>
          <path id="Path_4181" data-name="Path 4181" d="M20.668,71.711a12.047,12.047,0,0,0-3.627,9.577" transform="translate(3.369 14.19)" fill="none" stroke="#000" stroke-linecap="round" stroke-linejoin="round" stroke-width="0.567"/>
          <path id="Path_4182" data-name="Path 4182" d="M65.495,132.053,30.287,85.928,16.266,97.65l24.183,44.212c4.1,7.114,10.219,10.72,16.992,7.521h0c6.1-2.88,10.88-11.21,8.053-17.331" transform="translate(3.219 17.003)" fill="#d8553d"/>
          <line id="Line_24" data-name="Line 24" x2="7.577" y2="8.762" transform="translate(57.561 134.446)" fill="none" stroke="#000" stroke-linecap="round" stroke-linejoin="round" stroke-width="0.457"/>
          <path id="Path_4183" data-name="Path 4183" d="M85.515,81.251l23.98,16.81-1.477,82.865L75,175.35s-15.629-70.394,10.519-94.1" transform="translate(13.923 16.077)" fill="#fff"/>
          <path id="Path_4184" data-name="Path 4184" d="M72.072,160.8l32.635,6.336-.746-8.225-31.889-5.44Z" transform="translate(14.261 30.367)"/>
          <path id="Path_4185" data-name="Path 4185" d="M119.359,97.873S79.79,111.121,81.7,86.891l18.642-14.316,12.5,7.065,6.521,5.441L125.893,96Z" transform="translate(16.152 14.36)" fill="#fbb087"/>
          <path id="Path_4186" data-name="Path 4186" d="M104.926,73.711a95.9,95.9,0,0,0-26.794,37.223c-5.2,13.1-2.017,39.33-1.152,56.843S79,218.743,79,218.743l-12.9-7.205s-.286-76.8,1.585-86.882,10.8-49,23.7-53.2c0,0,4.4-1.3,12.028,1.407Z" transform="translate(13.076 14.076)" fill="#d8553d"/>
          <path id="Path_4187" data-name="Path 4187" d="M66.693,132.871S65.3,108.4,73.155,96.138" transform="translate(13.178 19.023)" fill="none" stroke="#000" stroke-linecap="round" stroke-linejoin="round" stroke-width="0.457"/>
          <path id="Path_4188" data-name="Path 4188" d="M125.053,83.123s-5.844-5.053-14.262,1.445-19.007,29.6-19.007,56.318S99.722,218.5,99.722,218.5s28.975,11.151,49.192-3.289l-30.5-51.447L133.2,122.654Z" transform="translate(18.162 16.077)" fill="#d8553d"/>
          <path id="Path_4189" data-name="Path 4189" d="M117.85,81.768s21.408,5.141,60.114,66.515l-20.891,13.8-40.431-45.743Z" transform="translate(23.08 16.179)" fill="#d8553d"/>
          <line id="Line_25" data-name="Line 25" x1="9.446" y1="10.687" transform="translate(139.723 132.521)" fill="none" stroke="#000" stroke-linecap="round" stroke-linejoin="round" stroke-width="0.457"/>
          <path id="Path_4190" data-name="Path 4190" d="M96.172,146.955,110.1,143.8l-.449-3.1a2.606,2.606,0,0,1,1.439-2.724,2.383,2.383,0,0,1,2.96.743l9.378,13.014,7.108,10.025c-8.161,4.079-15.8,3.414-17.979,1.612-.316.023-10.837.821-10.837.821a1.967,1.967,0,0,1-2.236-1.6c-.149-.776.03-1.907,2.257-2.41l-2.227.5a2.045,2.045,0,0,1-2.332-1.719c-.2-1.012.656-2.05,2.01-2.514l-1.657.206a2.109,2.109,0,0,1-2.421-2,2.323,2.323,0,0,1,1.828-2.357l2.46-.552-2.732-.046a2.3,2.3,0,0,1-2.475-2.276,2.52,2.52,0,0,1,1.981-2.471" transform="translate(18.637 27.256)" fill="#fbb087"/>
          <path id="Path_4191" data-name="Path 4191" d="M118.595,150.447l23.118-6.175,3.795,13.9-23.785,3.952Z" transform="translate(23.466 28.547)" fill="#fbb087"/>
          <path id="Path_4192" data-name="Path 4192" d="M162.4,133.591,121.882,147.45l8.572,18.321,39.054-8.725a12.283,12.283,0,1,0-7.109-23.454" transform="translate(24.117 26.275)" fill="#d8553d"/>
          <line id="Line_26" data-name="Line 26" y1="4.629" x2="13.531" transform="translate(168.973 161.238)" fill="none" stroke="#000" stroke-linecap="round" stroke-linejoin="round" stroke-width="0.457"/>
          <path id="Path_4193" data-name="Path 4193" d="M511,395.7l1.307-66.373,24.39,4.535-5.014,58.684Z" transform="translate(101.112 65.164)" fill="#fff"/>
          <path id="Path_4194" data-name="Path 4194" d="M511.768,376.54s15.769,8.56,22.555-3.862l44.171,26.4-73.764-.474Z" transform="translate(99.871 73.742)" fill="#070707"/>
          <rect id="Rectangle_419" data-name="Rectangle 419" width="6.775" height="73.765" transform="translate(604.557 479.124) rotate(-89.632)" fill="#fff"/>
          <path id="Path_4195" data-name="Path 4195" d="M533.1,384.881a1.3,1.3,0,0,0,.538-.408,26.823,26.823,0,0,1,6.064-5.913,1.2,1.2,0,0,0,.358-1.715,1.353,1.353,0,0,0-1.8-.345,28.8,28.8,0,0,0-6.73,6.519,1.2,1.2,0,0,0,.289,1.729,1.36,1.36,0,0,0,1.279.134" transform="translate(105.126 74.458)" fill="#fff"/>
          <path id="Path_4196" data-name="Path 4196" d="M538.389,387.525a1.3,1.3,0,0,0,.538-.408,26.827,26.827,0,0,1,6.064-5.913,1.2,1.2,0,0,0,.358-1.715,1.348,1.348,0,0,0-1.8-.344,28.747,28.747,0,0,0-6.73,6.518,1.2,1.2,0,0,0,.289,1.729,1.359,1.359,0,0,0,1.279.134" transform="translate(106.172 74.981)" fill="#fff"/>
          <path id="Path_4197" data-name="Path 4197" d="M543.674,390.168a1.3,1.3,0,0,0,.538-.408,26.885,26.885,0,0,1,6.065-5.911,1.2,1.2,0,0,0,.358-1.715,1.347,1.347,0,0,0-1.8-.344,28.8,28.8,0,0,0-6.731,6.516,1.2,1.2,0,0,0,.289,1.729,1.36,1.36,0,0,0,1.279.134" transform="translate(107.218 75.504)" fill="#fff"/>
          <path id="Path_4198" data-name="Path 4198" d="M458.518,394.142l9.649-65.68,23.626,7.568-12.36,57.586Z" transform="translate(90.727 64.993)" fill="#fff"/>
          <path id="Path_4199" data-name="Path 4199" d="M460.346,376.54s15.769,8.56,22.555-3.862l44.172,26.4-73.764-.474Z" transform="translate(89.697 73.742)" fill="#070707"/>
          <rect id="Rectangle_420" data-name="Rectangle 420" width="6.775" height="73.765" transform="translate(542.961 479.124) rotate(-89.632)" fill="#fff"/>
          <path id="Path_4200" data-name="Path 4200" d="M481.683,384.881a1.309,1.309,0,0,0,.537-.408,26.825,26.825,0,0,1,6.064-5.913,1.2,1.2,0,0,0,.359-1.715,1.355,1.355,0,0,0-1.8-.345,28.8,28.8,0,0,0-6.73,6.519,1.2,1.2,0,0,0,.289,1.729,1.362,1.362,0,0,0,1.281.134" transform="translate(94.951 74.458)" fill="#fff"/>
          <path id="Path_4201" data-name="Path 4201" d="M486.968,387.525a1.3,1.3,0,0,0,.538-.408,26.826,26.826,0,0,1,6.064-5.913,1.2,1.2,0,0,0,.358-1.715,1.348,1.348,0,0,0-1.8-.344,28.749,28.749,0,0,0-6.73,6.518,1.2,1.2,0,0,0,.289,1.729,1.359,1.359,0,0,0,1.279.134" transform="translate(95.997 74.981)" fill="#fff"/>
          <path id="Path_4202" data-name="Path 4202" d="M492.253,390.168a1.309,1.309,0,0,0,.537-.408,26.873,26.873,0,0,1,6.066-5.911,1.2,1.2,0,0,0,.357-1.715,1.346,1.346,0,0,0-1.8-.344,28.823,28.823,0,0,0-6.732,6.516,1.2,1.2,0,0,0,.289,1.729,1.362,1.362,0,0,0,1.281.134" transform="translate(97.043 75.504)" fill="#fff"/>
          <path id="Path_4203" data-name="Path 4203" d="M550.49,168.374s7.454-.184,8.61,34.251c.238,7.077.1,16.91-.344,23.977l-9.5,182.369H514.679l8.911-188.4-32.705,188.4L454.9,408.2l38.344-239.822L519.833,165Z" transform="translate(90.012 32.648)"/>
          <line id="Line_27" data-name="Line 27" y1="3.488" x2="14.946" transform="translate(613.603 249.734)" fill="none" stroke="#423f3f" stroke-linecap="round" stroke-linejoin="round" stroke-width="0.675"/>
          <path id="Path_4204" data-name="Path 4204" d="M495,86.633s13.015,13.222,28.059,18.932,44.046,24.072,66.063,25.758L581.8,100.6,534.036,74.539Z" transform="translate(97.947 14.749)" fill="#132a35"/>
          <path id="Path_4205" data-name="Path 4205" d="M598.641,59.811l1.09-8.06a4.13,4.13,0,0,1,2.908-3.4l9.552-2.858a3.106,3.106,0,0,1,2.378,5.7L610,53.688s6.346,5.049.223,11.821Z" transform="translate(118.454 8.975)" fill="#fbb087"/>
          <path id="Path_4206" data-name="Path 4206" d="M601.979,50.828,614.45,33.811a2.4,2.4,0,0,1,4.063,2.51l-7.846,15.27Z" transform="translate(119.114 6.496)" fill="#fbb087"/>
          <path id="Path_4207" data-name="Path 4207" d="M611.069,44.677l4.787-1.628a3.317,3.317,0,0,1,2.9.624l1.1.882a3.323,3.323,0,0,1,.845,4.176L614.59,59.62l-7.863-5.788Z" transform="translate(120.054 8.498)" fill="#fbb087"/>
          <path id="Path_4208" data-name="Path 4208" d="M619.087,45.707h1.782a3.265,3.265,0,0,1,2.283.932l1.475,1.445a3.26,3.26,0,0,1,.326,4.288L617.125,62.8l-6.787-5.055Z" transform="translate(120.768 9.044)" fill="#fbb087"/>
          <path id="Path_4209" data-name="Path 4209" d="M621.477,49.154h1.782a3.265,3.265,0,0,1,2.284.932l1.473,1.445a3.26,3.26,0,0,1,.326,4.288L624.6,59.482a8.5,8.5,0,0,1-11.867,1.713Z" transform="translate(121.241 9.726)" fill="#fbb087"/>
          <path id="Path_4210" data-name="Path 4210" d="M623.613,61.3l-3.658,4.044a9.4,9.4,0,0,1-13.281.664l-8.032-7.267,6.228-7.966h7.781l6.787,4.7Z" transform="translate(118.454 10.047)" fill="#fbb087"/>
          <path id="Path_4211" data-name="Path 4211" d="M602.528,48.352,612.917,44.9a2.832,2.832,0,0,1,2.58,4.932L609.229,53.8s5.65,2.76,1.042,9.184" transform="translate(119.223 8.86)" fill="none" stroke="#000" stroke-linecap="round" stroke-linejoin="round" stroke-width="0.567"/>
          <path id="Path_4212" data-name="Path 4212" d="M600.85,57.424,587.479,75.773l14.912,11.133,13.671-22.642Z" transform="translate(116.245 11.362)" fill="#fbb087"/>
          <path id="Path_4213" data-name="Path 4213" d="M563.1,107.766l34.7-45.574,21.674,16.777L589.488,126.5c-6.082,7.748-14.9,9.645-21.9,4.018-6.272-5.047-12.471-16.618-4.494-22.749" transform="translate(110.673 12.306)" fill="#132a35"/>
          <path id="Path_4214" data-name="Path 4214" d="M483.219,89.367,510.753,69.2l14.023.169s13.977,2.278,24.21,16.885,8.161,132.11,8.161,132.11-10.607-.983-10.837-17.9c0,0-3.573,22.944-22.988,25.313s-50.966-3.715-50.966-3.715l21.6-56.524-17.364-48.911a26.885,26.885,0,0,1,6.625-27.254" transform="translate(93.465 13.692)" fill="#132a35"/>
          <path id="Path_4215" data-name="Path 4215" d="M530.109,75.569l8.268,14.56-4.221-.052,4.617,5.952s2.832,18.148-4.239,40.009l-19.682-63.2,1.518-3.506a32.864,32.864,0,0,1,9.549,3.639" transform="translate(101.874 13.719)" fill="#274f5e"/>
          <path id="Path_4216" data-name="Path 4216" d="M496.2,76.4s32.286,25.857,42.027,59.664c0,0,3.576-41.563-18.166-66.7L506.035,69.2Z" transform="translate(98.183 13.692)" fill="#fff"/>
        </g>
      </g>
      <g id="Group_1054" data-name="Group 1054" transform="translate(594.38 82.887)">
        <g id="Group_1053" data-name="Group 1053" clip-path="url(#clip-path-10)">
          <path id="Path_4217" data-name="Path 4217" d="M498.991,84.758s32.2,13.914,30.925-8.349l-9.854-18.985s-22.007,6.854-23.331,7.194l-5.8,7.762-1.625,5.32Z" transform="translate(-497.56 -71.524)" fill="#fbb087"/>
        </g>
      </g>
      <g id="Group_1056" data-name="Group 1056">
        <g id="Group_1055" data-name="Group 1055" clip-path="url(#clip-path-2)">
          <path id="Path_4219" data-name="Path 4219" d="M497.319,75.212l-6.794,4.977,9.016,15.583,9,.108-6.277,6.193s23.8,18.693,37.078,32.8c0,0-8.814-34.236-42.027-59.664" transform="translate(97.061 14.882)" fill="#274f5e"/>
          <path id="Path_4220" data-name="Path 4220" d="M541.928,114.49s-.467-10.686-2.779-19.035" transform="translate(106.682 18.888)" fill="none" stroke="#000" stroke-linecap="round" stroke-linejoin="round" stroke-width="0.567"/>
          <path id="Path_4221" data-name="Path 4221" d="M499.031,79.884a39.011,39.011,0,0,0-21.157,18.429c-7.436,14.269-30.019,48.126-34.278,69.794l31.375-3.664,30.409-44.376Z" transform="translate(87.775 15.807)" fill="#132a35"/>
          <line id="Line_28" data-name="Line 28" y1="20.304" x2="13.913" transform="translate(579.241 135.873)" fill="none" stroke="#000" stroke-linecap="round" stroke-linejoin="round" stroke-width="0.567"/>
          <path id="Path_4222" data-name="Path 4222" d="M560.85,144.175l-51.015-20.493L504.689,135.9l49.83,19.449Z" transform="translate(99.863 24.473)" fill="#d6800a"/>
          <path id="Path_4223" data-name="Path 4223" d="M507.859,131.541l2.647-5.807,47.841,19.65-2.871,5.814Z" transform="translate(100.49 24.879)" fill="#fff"/>
          <path id="Path_4224" data-name="Path 4224" d="M561.015,147.469l-29.374,70.352-50.325-21.213,28.362-70.184Z" transform="translate(95.238 25.016)" fill="#e89924"/>
          <path id="Path_4225" data-name="Path 4225" d="M552.7,144.626l4.46-3.837-29.081,70.178-4.753,4.01Z" transform="translate(103.551 27.858)" fill="#d6800a"/>
          <path id="Path_4226" data-name="Path 4226" d="M505.3,150.881l32.159,13.193,3.571-8.421-32.159-13.195Z" transform="translate(99.985 28.188)" fill="#fff"/>
          <path id="Path_4227" data-name="Path 4227" d="M486.731,160.086l35.554,19.222-3.959,13.8-37.351-12.88Z" transform="translate(95.171 31.676)" fill="#fbb087"/>
          <path id="Path_4228" data-name="Path 4228" d="M516.115,176.323s25.2-4.57,24.252,4.493-5.469,30.459-28.21,9.3Z" transform="translate(101.341 34.661)" fill="#fbb087"/>
          <path id="Path_4229" data-name="Path 4229" d="M514.774,178.5l3.41-3.656a14.4,14.4,0,0,1,7.332-4.218l5.207-1.185a2.77,2.77,0,0,1,2.141,5.012l-7.495,4.947Z" transform="translate(101.859 33.514)" fill="#fbb087"/>
          <path id="Path_4230" data-name="Path 4230" d="M468.244,142.533l56.608,30.177-11.022,26.5-59.41-25c-9.173-3.59-13.532-11.49-10.159-19.809h0c3.025-7.459,15.812-17.737,23.983-11.866" transform="translate(87.682 27.859)" fill="#132a35"/>
          <line id="Line_29" data-name="Line 29" x1="9.894" y1="5.275" transform="translate(555.926 170.392)" fill="none" stroke="#000" stroke-linecap="round" stroke-linejoin="round" stroke-width="0.567"/>
          <path id="Path_4231" data-name="Path 4231" d="M521.43,47.7a19,19,0,0,1,2.022-6.914c1.557-3,3.942-5.867,7.525-4.175,6.1,2.882.084,12.818-6.172,13.626-1.841.238-3.525-1.034-3.376-2.537" transform="translate(103.174 7.145)" fill="#ee896c"/>
          <path id="Path_4232" data-name="Path 4232" d="M539.544,28.869c-1.234,12.977-12.362,27.7-26.4,27.726s-23.173-10.959-26.509-23.561C482.889,18.892,499.006,9.221,513.043,9.39c8.837.107,27.84,5.368,26.5,19.479" transform="translate(96.182 1.858)" fill="#823e22"/>
          <path id="Path_4233" data-name="Path 4233" d="M503.367,44.817l-3.579,38.458,19.877.036-1.2-34.465Z" transform="translate(98.893 8.868)" fill="#fbb087"/>
          <path id="Path_4234" data-name="Path 4234" d="M518.1,67.844,505.146,55.26l12.3-5.049Z" transform="translate(99.953 9.935)" fill="#ee896c"/>
          <path id="Path_4235" data-name="Path 4235" d="M507.469,14.025a28.288,28.288,0,0,1,13.237-.55c5.916,1.233,13.506,4.935,14.479,15.747,1.62,18.02-.543,32.553-9.434,36.65-6.827,3.146-11.8,1.948-19.679-2.619-2.93-1.7-5.743-8.929-6.543-12.378l-3.4-9.632s-9.219-21.556,11.337-27.219" transform="translate(97.762 2.559)" fill="#fbb087"/>
          <path id="Path_4236" data-name="Path 4236" d="M519.4,36.114l2.9,6.314-2.149,1.7" transform="translate(102.775 7.146)" fill="none" stroke="#000" stroke-linecap="round" stroke-linejoin="round" stroke-width="0.436"/>
          <path id="Path_4237" data-name="Path 4237" d="M521.948,25.326a2.391,2.391,0,0,0,2.027,3.1A17.688,17.688,0,0,1,528.6,29.6a1.4,1.4,0,0,0,1.851-.661,1.954,1.954,0,0,0,.016-1.881,6.812,6.812,0,0,0-4.6-3.446c-3.283-.653-3.915,1.711-3.915,1.711" transform="translate(103.26 4.65)" fill="#823e22"/>
          <path id="Path_4238" data-name="Path 4238" d="M517.283,25.183s.914,2.6-2.98,3.1a44.8,44.8,0,0,0-8.167,2.193,2.281,2.281,0,0,1-2.549-.665,1.485,1.485,0,0,1,.071-1.882,16.03,16.03,0,0,1,8.246-4.467c4.614-.646,5.38,1.72,5.38,1.72" transform="translate(99.585 4.62)" fill="#823e22"/>
          <path id="Path_4239" data-name="Path 4239" d="M517.512,36.034s-1.855-7.127-11.237-1.923c0,0,3.8,7.406,11.237,1.923" transform="translate(100.177 6.373)" fill="#fff"/>
        </g>
      </g>
      <g id="Group_1058" data-name="Group 1058" transform="translate(606.452 38.583)">
        <g id="Group_1057" data-name="Group 1057" clip-path="url(#clip-path-12)">
          <path id="Path_4240" data-name="Path 4240" d="M515.188,35.068a3.255,3.255,0,1,1-3.632-2.941,3.305,3.305,0,0,1,3.632,2.941" transform="translate(-505.795 -32.231)"/>
        </g>
      </g>
      <g id="Group_1060" data-name="Group 1060">
        <g id="Group_1059" data-name="Group 1059" clip-path="url(#clip-path-2)">
          <path id="Path_4242" data-name="Path 4242" d="M506.185,33.994a9.844,9.844,0,0,1,2.959-1.5,10.659,10.659,0,0,1,3.294-.526,6.642,6.642,0,0,1,3.271.907,4.585,4.585,0,0,1,2.051,2.834.426.426,0,1,1-.83.189l0-.014-.008-.047a3.838,3.838,0,0,0-1.61-2.349,5.979,5.979,0,0,0-2.9-.908,10.149,10.149,0,0,0-3.117.4,9.381,9.381,0,0,0-2.86,1.343.207.207,0,0,1-.289-.044.211.211,0,0,1,.043-.287" transform="translate(100.143 6.325)"/>
          <path id="Path_4243" data-name="Path 4243" d="M521.556,35.989s2.781-7.073,7.938-2.2c0,0-2,6.948-7.938,2.2" transform="translate(103.201 6.347)" fill="#fff"/>
        </g>
      </g>
      <g id="Group_1062" data-name="Group 1062" transform="translate(624.757 38.424)">
        <g id="Group_1061" data-name="Group 1061" clip-path="url(#clip-path-14)">
          <path id="Path_4244" data-name="Path 4244" d="M523.083,34.626c-.277,1.689.583,3.235,1.92,3.455s2.645-.973,2.922-2.662-.582-3.234-1.92-3.453-2.645.971-2.922,2.66" transform="translate(-521.264 -32.104)"/>
        </g>
      </g>
      <g id="Group_1064" data-name="Group 1064">
        <g id="Group_1063" data-name="Group 1063" clip-path="url(#clip-path-2)">
          <path id="Path_4246" data-name="Path 4246" d="M529.383,33.921a3.674,3.674,0,0,0-1.515-1.272,3.064,3.064,0,0,0-1.906-.164l-.035.007a4.552,4.552,0,0,0-2.343,1.168,6.064,6.064,0,0,0-1.487,2.177l-.01.023a.36.36,0,0,1-.668-.266l0-.008a6.711,6.711,0,0,1,.747-1.3,6.6,6.6,0,0,1,1-1.089,5.134,5.134,0,0,1,2.68-1.215l-.034.007a3.517,3.517,0,0,1,2.223.265,4.057,4.057,0,0,1,1.628,1.47.174.174,0,0,1-.05.241.176.176,0,0,1-.238-.046" transform="translate(103.169 6.315)"/>
          <path id="Path_4247" data-name="Path 4247" d="M513.736,45.587s6.456,3.425,11.026-.679" transform="translate(101.653 8.886)" fill="none" stroke="#000" stroke-linecap="round" stroke-linejoin="round" stroke-width="0.436"/>
          <path id="Path_4248" data-name="Path 4248" d="M500.639,45.568s8.629-27.4-4.14-28.1l-6.991,13.652,3.751,11.4Z" transform="translate(96.859 3.456)" fill="#823e22"/>
          <path id="Path_4249" data-name="Path 4249" d="M502.894,47.656a19.989,19.989,0,0,0-2.94-6.987c-1.985-2.946-4.82-5.662-8.364-3.465-6.035,3.741,1.442,13.41,8.077,13.508,1.952.029,3.562-1.5,3.226-3.056" transform="translate(96.832 7.203)" fill="#fbb087"/>
          <path id="Path_4250" data-name="Path 4250" d="M492.605,41.176c4.7-1.612,7.22,3.661,7.22,3.661" transform="translate(97.472 8.087)" fill="none" stroke="#000" stroke-linecap="round" stroke-linejoin="round" stroke-width="0.436"/>
          <path id="Path_4251" data-name="Path 4251" d="M496.9,20.006s31.836,8.225,42.814-6.872c0,0-20.174-11.258-37.352-1.979Z" transform="translate(98.321 1.482)" fill="#823e22"/>
          <path id="Path_4252" data-name="Path 4252" d="M496.945,15.735s6.934-10.929,19.613-11.072c0,0-3.471,8.75-11,11.156s-8.612-.084-8.612-.084" transform="translate(98.331 0.923)" fill="#823e22"/>
          <path id="Path_4253" data-name="Path 4253" d="M493.592,19.121s.365-7.175,6.452-10.707c0,0,.714,5.176-2.268,8.395s-4.184,2.312-4.184,2.312" transform="translate(97.667 1.665)" fill="#823e22"/>
          <rect id="Rectangle_424" data-name="Rectangle 424" width="20.552" height="28.146" transform="translate(308.75 431.804)" fill="#fff"/>
          <path id="Path_4254" data-name="Path 4254" d="M277.5,377.879l-8.11,5.407-9.021-2.849a3.153,3.153,0,0,0-4.1,3.007V395h60.671s-.078-10.123-15.106-7.686l-21.253-9.679a3.179,3.179,0,0,0-3.08.248" transform="translate(50.708 74.666)"/>
          <rect id="Rectangle_425" data-name="Rectangle 425" width="14.981" height="3.864" transform="translate(306.976 469.661)"/>
          <path id="Path_4255" data-name="Path 4255" d="M268.774,392.08l7.944,3.864h37.746V392.08Z" transform="translate(53.183 77.581)"/>
          <path id="Path_4256" data-name="Path 4256" d="M209.958,360.477h20.552l-3.584,28.146H206.373Z" transform="translate(40.835 71.328)" fill="#fff"/>
          <path id="Path_4257" data-name="Path 4257" d="M226.12,377.879l-8.11,5.407-9.02-2.849a3.153,3.153,0,0,0-4.1,3.007V395h60.671s-.078-10.123-15.106-7.686L229.2,377.631a3.179,3.179,0,0,0-3.08.248" transform="translate(40.541 74.666)"/>
          <rect id="Rectangle_426" data-name="Rectangle 426" width="14.981" height="3.864" transform="translate(245.431 469.661)"/>
          <path id="Path_4258" data-name="Path 4258" d="M217.395,392.08l7.944,3.864h37.746V392.08Z" transform="translate(43.016 77.581)"/>
          <path id="Path_4259" data-name="Path 4259" d="M289.881,142.67s2.032,3.965,3.3,41.613c.26,7.738,1.5,21.59,1.581,34.042l-.527,197.129H262.3l-3.627-205.988L235.207,415.454l-32.319-.846,19.052-264.65,30.244-3.691Z" transform="translate(40.146 28.23)" fill="#132a35"/>
          <line id="Line_30" data-name="Line 30" y1="6.913" x2="16.057" transform="translate(298.814 230.782)" fill="none" stroke="#000" stroke-linecap="round" stroke-linejoin="round" stroke-width="0.457"/>
          <path id="Path_4260" data-name="Path 4260" d="M274.242,154.813l30.749,66.842,9.778-.677c-11.868-45.628-11.848-45.557-20.564-73.7-1.381-4.457-10.368-5.525-14.7-3.79-4.06,1.625-6.885,7.261-5.265,11.322" transform="translate(54.172 28.236)" fill="#fbb087"/>
          <path id="Path_4261" data-name="Path 4261" d="M299.241,204.133s-2.572,9.085,1.747,17.332l-.89,9.067a2.734,2.734,0,0,0,2.165,2.961,2.937,2.937,0,0,0,3.408-2.1l1.455-5.31.515,1.821a13.435,13.435,0,0,1-.556,8.826l-3.352,8.041c-.381.914-1.435.751-.822,1.5a2.725,2.725,0,0,0,4.455-.458l6.921-8.822a15.347,15.347,0,0,0,1.246-12.614l-8.862-23.411Z" transform="translate(59.061 39.765)" fill="#fbb087"/>
          <path id="Path_4262" data-name="Path 4262" d="M297.547,159.523l-2.657-42.546c-3.765-32.6-24.118-41.3-24.118-41.3l-1.717,55.494,6.173-3.391,4.384,57.857,18.669,43.4,18.277-7.614Z" transform="translate(53.238 14.974)" fill="#fff"/>
          <path id="Path_4263" data-name="Path 4263" d="M249.675,69.215A90.715,90.715,0,0,0,224.4,74.967a66.308,66.308,0,0,0-6.586,2.947c-5.769,3.019-4.043,9.54-3.318,16.2l3.39,90.034,70.4-1.708a5.655,5.655,0,0,0,5.513-5.965l-2.785-72.206c-.266-12.671-2.459-25-10.951-27.993-9.513-3.355-21.126-7.112-26.188-7.417Z" transform="translate(42.281 13.625)" fill="#823e22"/>
          <path id="Path_4264" data-name="Path 4264" d="M272.393,74.789s-13.371-5.236-21.905-5.932c0,0-11.661.495-19.679,2.966l29.205,38.436Z" transform="translate(45.67 13.625)" fill="#fff"/>
          <path id="Path_4265" data-name="Path 4265" d="M252.868,74.4l-5.886,7.426,7,5.085L259.552,81Z" transform="translate(48.87 14.721)" fill="#0f4088"/>
          <path id="Path_4266" data-name="Path 4266" d="M252.168,82.2,248.64,97.294l7.846,10.326,2.737-7.845L254.543,82.2Z" transform="translate(49.199 16.265)" fill="#0f4088"/>
          <path id="Path_4267" data-name="Path 4267" d="M248.591,81.189l-1.623,2.446L237.5,79.618" transform="translate(46.995 15.754)" fill="none" stroke="#e0e0e0" stroke-linecap="round" stroke-linejoin="round" stroke-width="0.75"/>
          <path id="Path_4268" data-name="Path 4268" d="M257.475,80.2l2.165,2.035,4.957-3.8" transform="translate(50.947 15.52)" fill="none" stroke="#e0e0e0" stroke-linecap="round" stroke-linejoin="round" stroke-width="0.75"/>
          <path id="Path_4269" data-name="Path 4269" d="M230.555,75.279s-21.749,3.5-68.062,66.385l23.859,18.642,38.255-44.277c15.012-19.6,5.947-40.75,5.947-40.75" transform="translate(32.153 14.896)" fill="#fff"/>
          <path id="Path_4270" data-name="Path 4270" d="M208.136,92.936l51.67,18.783-4.323,12.535-50.09-18.769Z" transform="translate(40.641 18.389)"/>
          <path id="Path_4271" data-name="Path 4271" d="M255.076,118.37l1.9-6.091L208.238,94.986l-1.743,6.246Z" transform="translate(40.859 18.795)" fill="#fff"/>
          <path id="Path_4272" data-name="Path 4272" d="M212.459,97.806l-25.074,72,51.637,17.786,25.715-71.2Z" transform="translate(37.078 19.353)" fill="#132a35"/>
          <path id="Path_4273" data-name="Path 4273" d="M212.6,98.77l-.761-5.834-25.176,71.672.862,6.158Z" transform="translate(36.936 18.389)"/>
          <path id="Path_4274" data-name="Path 4274" d="M241.746,133.646,208.992,122.01l2.961-8.655,32.755,11.636Z" transform="translate(41.353 22.43)" fill="#fff"/>
          <path id="Path_4275" data-name="Path 4275" d="M193.868,135.4l37.99,13.795-1.89,14.228-38.837-7.257Z" transform="translate(37.819 26.792)" fill="#fbb087"/>
          <path id="Path_4276" data-name="Path 4276" d="M225.443,147.478s24.254-8.22,24.649.884-.938,30.933-26.539,13.344Z" transform="translate(44.235 28.508)" fill="#fbb087"/>
          <path id="Path_4277" data-name="Path 4277" d="M224.577,149.764l2.837-4.117a14.4,14.4,0,0,1,6.634-5.248l4.976-1.937a2.769,2.769,0,0,1,2.853,4.643l-6.688,5.994Z" transform="translate(44.437 27.36)" fill="#fbb087"/>
          <path id="Path_4278" data-name="Path 4278" d="M180.839,127.361l49.254,15.958-4.558,25.064-54.976-13.726a14.618,14.618,0,1,1,10.28-27.3" transform="translate(31.687 24.939)" fill="#fff"/>
          <line id="Line_31" data-name="Line 31" x1="13.365" y1="4.33" transform="translate(218.505 154.237)" fill="none" stroke="#e0e0e0" stroke-linecap="round" stroke-linejoin="round" stroke-width="0.75"/>
          <path id="Path_4279" data-name="Path 4279" d="M249.694,4.988s16.648-7.462,25.271,1.621c6.764,7.124-4.751,19.536-10.913,18.841S249.694,4.988,249.694,4.988" transform="translate(49.407 0.416)" fill="#fff"/>
          <path id="Path_4280" data-name="Path 4280" d="M261.326,42.08a19.516,19.516,0,0,1,1.991-7.124c1.562-3.094,3.973-6.071,7.672-4.378,6.3,2.883.244,13.159-6.167,14.065-1.887.266-3.632-1.018-3.5-2.563" transform="translate(51.707 5.953)" fill="#ee896c"/>
          <path id="Path_4281" data-name="Path 4281" d="M276.839,26.8c.189,13.381-9.793,24.347-24.2,24.55S226.392,40.873,226.2,27.492s11.338-24.4,25.747-24.6,24.7,10.527,24.889,23.908" transform="translate(44.758 0.572)" fill="#fff"/>
          <path id="Path_4282" data-name="Path 4282" d="M242.651,39.332,239.716,75.59,254.3,81.333l5.484-4.175L258.2,43.282Z" transform="translate(47.433 7.783)" fill="#fbb087"/>
          <path id="Path_4283" data-name="Path 4283" d="M258.173,62.807,244.718,50.05l12.566-5.335Z" transform="translate(48.422 8.848)" fill="#ee896c"/>
          <path id="Path_4284" data-name="Path 4284" d="M246.567,7.708a29.07,29.07,0,0,1,13.581-.728c6.089,1.193,13.926,4.9,15.058,15.988,1.884,18.478-.156,33.425-9.233,37.741-6.968,3.312-12.093,2.144-20.233-2.446-3.029-1.708-6-9.1-6.87-12.626l-3.606-9.846s-9.729-22.014,11.3-28.083" transform="translate(46.107 1.284)" fill="#fbb087"/>
          <path id="Path_4285" data-name="Path 4285" d="M259.488,31.3l2.192,4.229-1.658,1.344" transform="translate(51.345 6.193)" fill="none" stroke="#000" stroke-linecap="round" stroke-linejoin="round" stroke-width="0.447"/>
          <path id="Path_4286" data-name="Path 4286" d="M261.6,18.2a2.456,2.456,0,0,0,2.119,3.161,18.223,18.223,0,0,1,4.758,1.148,1.438,1.438,0,0,0,1.891-.7,2.007,2.007,0,0,0-.007-1.931,7,7,0,0,0-4.764-3.482c-3.378-.629-4,1.805-4,1.805" transform="translate(51.747 3.223)" fill="#fff"/>
          <path id="Path_4287" data-name="Path 4287" d="M256.805,18.124s.97,2.658-3.021,3.22a46.043,46.043,0,0,0-8.358,2.351,2.338,2.338,0,0,1-2.625-.65,1.522,1.522,0,0,1,.049-1.932,16.452,16.452,0,0,1,8.41-4.688c4.729-.72,5.544,1.7,5.544,1.7" transform="translate(47.98 3.223)" fill="#fff"/>
          <path id="Path_4288" data-name="Path 4288" d="M256.872,29.9s-1.993-7.294-11.559-1.834c0,0,3.989,7.556,11.559,1.834" transform="translate(48.54 5.153)" fill="#fff"/>
        </g>
      </g>
      <g id="Group_1066" data-name="Group 1066" transform="translate(293.853 31.196)">
        <g id="Group_1065" data-name="Group 1065" clip-path="url(#clip-path-16)">
          <path id="Path_4289" data-name="Path 4289" d="M254.472,28.935a3.342,3.342,0,1,1-3.765-2.974,3.394,3.394,0,0,1,3.765,2.974" transform="translate(-244.817 -26.065)"/>
        </g>
      </g>
      <g id="Group_1068" data-name="Group 1068">
        <g id="Group_1067" data-name="Group 1067" clip-path="url(#clip-path-2)">
          <path id="Path_4291" data-name="Path 4291" d="M245.219,27.951a10.1,10.1,0,0,1,3.019-1.579,10.974,10.974,0,0,1,3.376-.581,6.81,6.81,0,0,1,3.37.891,4.709,4.709,0,0,1,2.141,2.883.437.437,0,1,1-.85.2l0-.014-.01-.048a3.935,3.935,0,0,0-1.682-2.391,6.122,6.122,0,0,0-2.987-.9,10.36,10.36,0,0,0-3.2.454,9.611,9.611,0,0,0-2.919,1.413.212.212,0,0,1-.3-.042.218.218,0,0,1,.041-.3" transform="translate(48.506 5.103)"/>
          <path id="Path_4292" data-name="Path 4292" d="M261.328,30.048s2.768-7.3,8.123-2.354c0,0-1.969,7.157-8.123,2.354" transform="translate(51.709 5.14)" fill="#fff"/>
        </g>
      </g>
      <g id="Group_1070" data-name="Group 1070" transform="translate(313.037 31.116)">
        <g id="Group_1069" data-name="Group 1069" clip-path="url(#clip-path-18)">
          <path id="Path_4293" data-name="Path 4293" d="M262.88,28.625c-.264,1.737.638,3.315,2.014,3.523s2.7-1.031,2.967-2.768-.638-3.315-2.014-3.523-2.7,1.031-2.967,2.768" transform="translate(-261.03 -26.004)"/>
        </g>
      </g>
      <g id="Group_1078" data-name="Group 1078">
        <g id="Group_1077" data-name="Group 1077" clip-path="url(#clip-path-2)">
          <path id="Path_4295" data-name="Path 4295" d="M269.338,27.829a3.773,3.773,0,0,0-1.572-1.287,3.147,3.147,0,0,0-1.958-.146l-.035.008a4.676,4.676,0,0,0-2.392,1.228,6.253,6.253,0,0,0-1.5,2.252l-.01.024a.369.369,0,0,1-.689-.265l0-.008a6.8,6.8,0,0,1,.751-1.34,6.7,6.7,0,0,1,1.017-1.131,5.25,5.25,0,0,1,2.736-1.279l-.035.007a3.431,3.431,0,0,1,1.174-.062,3.545,3.545,0,0,1,1.112.307,4.175,4.175,0,0,1,1.689,1.488.179.179,0,0,1-.293.2" transform="translate(51.676 5.106)"/>
          <path id="Path_4296" data-name="Path 4296" d="M262.9,37.854a2.486,2.486,0,0,0-1.73-1.515c-1.326-.333-3.685-.386-6.094,2.185-3.651,3.894-7.059,3.651-8.276,2.8,0,0,6.572,8.4,15.091,1.339,0,0,1.936-2.387,1.009-4.807" transform="translate(48.834 7.158)" fill="#fff"/>
          <path id="Path_4297" data-name="Path 4297" d="M259.394,39.84a3.092,3.092,0,0,1,3.528-3.636,6.2,6.2,0,0,1,3.751,2.1c3.334,3.556,5.376,3.334,6.488,2.556,0,0-4.932,7.669-12.712,1.222a5.96,5.96,0,0,1-1.054-2.247" transform="translate(51.313 7.158)" fill="#fff"/>
          <g id="Group_1073" data-name="Group 1073" transform="translate(312.193 27.604)" opacity="0.22">
            <g id="Group_1072" data-name="Group 1072">
              <g id="Group_1071" data-name="Group 1071" clip-path="url(#clip-path-20)">
                <path id="Path_4298" data-name="Path 4298" d="M268.961,23.352l6.607,7.193s.05,5.163-4.777,5.678L260.623,24.816s.576-2.656,8.338-1.464" transform="translate(-260.623 -23.044)" fill="#fff"/>
              </g>
            </g>
          </g>
          <g id="Group_1076" data-name="Group 1076" transform="translate(289.631 27.898)" opacity="0.22">
            <g id="Group_1075" data-name="Group 1075">
              <g id="Group_1074" data-name="Group 1074" clip-path="url(#clip-path-21)">
                <path id="Path_4299" data-name="Path 4299" d="M251.268,23.3l7.79,8.156s0,5.244-5.959,4.715l-11.31-12.034s2.339-.979,9.48-.837" transform="translate(-241.788 -23.29)" fill="#fff"/>
              </g>
            </g>
          </g>
          <path id="Path_4300" data-name="Path 4300" d="M259.969,26.839a19.757,19.757,0,0,1-1.629,7.3,3.746,3.746,0,0,1-3.167,2.044l-9.422-.032A4.179,4.179,0,0,1,242,32.747a17.8,17.8,0,0,1-.22-5.687,3.884,3.884,0,0,1,3.122-3.34c3.035-.553,12.687-.284,12.687-.284A3.2,3.2,0,0,1,259.969,26.839Z" transform="translate(47.813 4.624)" fill="none" stroke="#000" stroke-linecap="round" stroke-linejoin="round" stroke-width="1.009"/>
          <path id="Path_4301" data-name="Path 4301" d="M246.588,23.019l-6.182.331a.666.666,0,0,0-.63.689l.042,1.14a.664.664,0,0,0,.284.521l2.044,1.429s1.1-3.731,4.443-4.11" transform="translate(47.445 4.555)"/>
          <path id="Path_4302" data-name="Path 4302" d="M260.637,26.72c.156,1.933.242,4.944,1.494,7.438A3.745,3.745,0,0,0,265.3,36.2l6.211-.032a4.179,4.179,0,0,0,3.754-3.408,17.8,17.8,0,0,0,.22-5.687,3.884,3.884,0,0,0-3.122-3.34,65.672,65.672,0,0,0-9.34-.417C261.2,23.449,260.512,25.155,260.637,26.72Z" transform="translate(51.57 4.611)" fill="none" stroke="#000" stroke-linecap="round" stroke-linejoin="round" stroke-width="1.009"/>
          <path id="Path_4303" data-name="Path 4303" d="M269.319,23.019l6.182.331a.666.666,0,0,1,.63.689l-.042,1.14a.664.664,0,0,1-.284.521l-2.044,1.429s-1.1-3.731-4.443-4.11" transform="translate(53.29 4.555)"/>
          <path id="Path_4304" data-name="Path 4304" d="M261.382,28.673s-1.557-1.581-4.579.217" transform="translate(50.814 5.546)" fill="none" stroke="#000" stroke-linecap="round" stroke-linejoin="round" stroke-width="1.009"/>
          <line id="Line_32" data-name="Line 32" y1="7.797" x2="7.956" transform="translate(281.675 30.103)" fill="none" stroke="#000" stroke-linecap="round" stroke-linejoin="round" stroke-width="1.009"/>
          <path id="Path_4305" data-name="Path 4305" d="M242.312,42.255a20.527,20.527,0,0,0-3.1-7.137c-2.075-3-5.019-5.753-8.629-3.453-6.149,3.915,1.647,13.749,8.459,13.767,2,0,3.638-1.586,3.274-3.177" transform="translate(45.183 6.097)" fill="#fbb087"/>
          <path id="Path_4306" data-name="Path 4306" d="M231.679,35.724c4.807-1.713,7.457,3.668,7.457,3.668" transform="translate(45.843 7.002)" fill="none" stroke="#000" stroke-linecap="round" stroke-linejoin="round" stroke-width="0.447"/>
          <path id="Path_4307" data-name="Path 4307" d="M260.7,7.371s-6.253-1.738-8.633,4.532c-3.3,8.687-13.26,12.527-21.841,9.894,0,0,1.965-12.369,14.677-16s15.8,1.573,15.8,1.573" transform="translate(45.555 0.893)" fill="#fff"/>
          <path id="Path_4308" data-name="Path 4308" d="M261.7,5.4s-2.79-6.549-14.479-5.229c-13.96,1.576-22.191,13.411-19.991,20.389,1.695,5.375,12.853-2.323,12.853-2.323Z" transform="translate(44.893 0)" fill="#fff"/>
          <path id="Path_4309" data-name="Path 4309" d="M322.555,385.543,311,391.906a3.333,3.333,0,0,0-1.587,3.682c.3,1.157,1.288,2.041,3.86,2.091,5.714.114,37.129-4.1,37.129-4.1v3.25l11.817.03s.739-16.77-2.835-18.961Z" transform="translate(61.203 74.775)"/>
          <path id="Path_4310" data-name="Path 4310" d="M341.979,375.883l-21.613,10.378s8.12,5.716,16.945,1.906,19.88-9.551,19.88-9.551l-1.612-4.352Z" transform="translate(63.391 74.056)" fill="#dc7c59"/>
          <path id="Path_4311" data-name="Path 4311" d="M352.234,382.218l1.612-48.15-16.575,1.015v53.748Z" transform="translate(66.736 66.102)" fill="#dc7c59"/>
          <path id="Path_4312" data-name="Path 4312" d="M446.9,385.543l11.559,6.363a3.334,3.334,0,0,1,1.587,3.682c-.3,1.157-1.288,2.041-3.86,2.091-5.714.114-37.129-4.1-37.129-4.1v3.4l-11.649-.147s-.907-16.74,2.668-18.931Z" transform="translate(80.594 74.775)"/>
          <path id="Path_4313" data-name="Path 4313" d="M424.828,375.883l21.613,10.378s-8.12,5.716-16.945,1.906-19.88-9.551-19.88-9.551l1.612-4.352Z" transform="translate(81.051 74.056)" fill="#dc7c59"/>
          <path id="Path_4314" data-name="Path 4314" d="M412.964,382.218l-12.12-48.15,16.574,1.015,11.843,54.848Z" transform="translate(79.315 66.102)" fill="#dc7c59"/>
          <path id="Path_4315" data-name="Path 4315" d="M349.51,140.2s-22.829,37.19-22.261,70.022S335.871,406,335.871,406h27.346l5.5-205.92,3.294-.2,42.678,206.2,25.681-2.466L413.311,212.128a149.856,149.856,0,0,0-9.636-34.508c-3.94-9.455-8.675-25.378-15.427-33.72Z" transform="translate(64.751 27.742)" fill="#0f4088"/>
          <line id="Line_33" data-name="Line 33" y1="0.925" x2="15.284" transform="translate(433.619 227.021)" fill="none" stroke="#000" stroke-linecap="round" stroke-linejoin="round" stroke-width="0.457"/>
          <path id="Path_4316" data-name="Path 4316" d="M317.47,109.411,297.207,139.7c-7.085,11.09,9.854,22.519,17.515,11.886l34.5-46.047Z" transform="translate(58.473 20.884)" fill="#dc7c59"/>
          <path id="Path_4317" data-name="Path 4317" d="M345.06,79.385c-12.794-4.208-32.287,28.8-39.989,40.706l30.887,20.33c5.727-9.408,43.88-47.383,9.1-61.036" transform="translate(60.365 15.635)" fill="#da98c0"/>
          <path id="Path_4318" data-name="Path 4318" d="M380.946,79.016s22.135,1.446,23.026,34l-15.194,3.5Z" transform="translate(75.378 15.635)" fill="#da98c0"/>
          <path id="Path_4319" data-name="Path 4319" d="M337.519,79.452c24.741-4.548,38.429-4.547,57,.722,21.025,5.964,3.221,62.734-1.714,84.267H343.55L326.969,100.4c2.269-5.123,2.81-20.48,10.55-20.952" transform="translate(64.698 15.063)" fill="#da98c0"/>
          <line id="Line_34" data-name="Line 34" x1="5.889" y1="24.897" transform="translate(395.371 127.621)" fill="none" stroke="#000" stroke-linecap="round" stroke-linejoin="round" stroke-width="0.444"/>
          <line id="Line_35" data-name="Line 35" y1="24.897" x2="3.547" transform="translate(464.755 119.104)" fill="none" stroke="#000" stroke-linecap="round" stroke-linejoin="round" stroke-width="0.444"/>
          <path id="Path_4320" data-name="Path 4320" d="M370.238,87.251l-15.39-9.507.812-5.273h-2.542a3.968,3.968,0,0,0-2.8,1.158L345.7,78.234l10.6,15.889a3.351,3.351,0,0,0,4.946.7Z" transform="translate(68.404 14.34)" fill="#fff"/>
          <path id="Path_4321" data-name="Path 4321" d="M370.8,72.47h1.913a3.964,3.964,0,0,1,3.3,1.76l3.189,4.764-1.388,13.77A1.794,1.794,0,0,1,374.929,94l-8.744-6.752,4.924-8.238Z" transform="translate(72.457 14.34)" fill="#fff"/>
          <path id="Path_4322" data-name="Path 4322" d="M367.961,90.54a1.524,1.524,0,1,1-1.524-1.524,1.524,1.524,0,0,1,1.524,1.524" transform="translate(72.205 17.614)" fill="#fff"/>
          <path id="Path_4323" data-name="Path 4323" d="M368.245,95.61a1.524,1.524,0,1,1-1.524-1.524,1.524,1.524,0,0,1,1.524,1.524" transform="translate(72.262 18.617)" fill="#fff"/>
          <path id="Path_4324" data-name="Path 4324" d="M354.964,121.159s8.594-15.22,31.124-6.223l-8.735,18.574-19.7-.673Z" transform="translate(70.237 22.18)" fill="#dc7c59"/>
          <path id="Path_4325" data-name="Path 4325" d="M364.962,119.661l-60.531,10.381,3.539,22.573,59.68-21.275Z" transform="translate(60.238 23.677)" fill="#dc7c59"/>
          <line id="Line_36" data-name="Line 36" x1="14.794" y2="2.537" transform="translate(371.68 149.98)" fill="none" stroke="#000" stroke-linecap="round" stroke-linejoin="round" stroke-width="0.444"/>
          <path id="Path_4326" data-name="Path 4326" d="M359.227,171.113l-4.1-4.559,24.927-58.529s44.729-7.53,63.02-1.326Z" transform="translate(70.268 20.628)" fill="#fff"/>
          <path id="Path_4327" data-name="Path 4327" d="M434.93,106.294l-9.723,1.326-28.949,56.793s8.4.22,12.154-7.071Z" transform="translate(78.408 21.032)"/>
          <path id="Path_4328" data-name="Path 4328" d="M432.668,107.4l-49.8,4.421-24.318,58.667,45.171-6.295Z" transform="translate(70.946 21.251)" fill="#132a35"/>
          <path id="Path_4329" data-name="Path 4329" d="M411.485,118.906l-27.809,2.469-2.73,6.664,27.083-2.563Z" transform="translate(75.378 23.528)" fill="#fff"/>
          <path id="Path_4330" data-name="Path 4330" d="M432.3,110.749l-5.86-26.97H420.7l-11.135,25.576Z" transform="translate(81.04 16.577)" fill="#fff"/>
          <path id="Path_4331" data-name="Path 4331" d="M412.943,145.054s6.627,1.618,12.239-6.944.175-13.106.175-13.106L411.3,115.112a1.5,1.5,0,0,0-1.9,2.3l8.342,8.015-12.608-8.3a2.022,2.022,0,0,0-2.357,3.282l11.685,9.148-10.5-5.442a1.687,1.687,0,0,0-1.769,2.861l10.691,7.784-9.121-4.352a1.806,1.806,0,0,0-1.845,3.088l12.3,8.991Z" transform="translate(79.382 22.723)" fill="#dc7c59"/>
          <path id="Path_4332" data-name="Path 4332" d="M375.149,49.1a19.378,19.378,0,0,1,1.976-7.076c1.551-3.073,3.948-6.03,7.622-4.348,6.256,2.864.242,13.07-6.126,13.97-1.873.265-3.607-1.011-3.473-2.545" transform="translate(74.23 7.357)" fill="#b95535"/>
          <path id="Path_4333" data-name="Path 4333" d="M384.255,48a1.724,1.724,0,1,1-1.846-1.592A1.723,1.723,0,0,1,384.255,48" transform="translate(75.352 9.182)" fill="#fff"/>
          <path id="Path_4334" data-name="Path 4334" d="M361.647,53.852a15.793,15.793,0,1,1-15.793-15.793,15.793,15.793,0,0,1,15.793,15.793" transform="translate(65.31 7.531)"/>
          <path id="Path_4335" data-name="Path 4335" d="M348.546,17.156s-4.667-2.522-9.558,4.488-4.135,21.692,5.837,24.363Z" transform="translate(66.495 3.307)"/>
          <path id="Path_4336" data-name="Path 4336" d="M346.483,18.945s2.659-13.706,23.275-10.892S404,19.685,389.681,39.2Z" transform="translate(68.559 1.518)"/>
          <path id="Path_4337" data-name="Path 4337" d="M390.556,34.807c.188,13.292-9.725,24.181-24.039,24.385s-26.067-10.407-26.255-23.7,11.261-24.231,25.573-24.433,24.532,10.455,24.72,23.747" transform="translate(67.328 2.188)"/>
          <path id="Path_4338" data-name="Path 4338" d="M358.8,47.254l-5.458,35.48,15.389,9.506L373.652,84l-1.54-32.826Z" transform="translate(69.915 9.35)" fill="#dc7c59"/>
          <path id="Path_4339" data-name="Path 4339" d="M372.017,70.57,358.652,57.9l12.481-5.3Z" transform="translate(70.967 10.408)" fill="#b95535"/>
          <path id="Path_4340" data-name="Path 4340" d="M360.489,15.844a28.875,28.875,0,0,1,13.49-.724c6.047,1.185,13.832,4.867,14.955,15.879,1.872,18.354-.153,32.138-9.17,36.424-6.921,3.291-12.012,2.131-20.1-2.429-3.008-1.7-5.964-7.971-6.822-11.477l-3.582-9.781S339.6,21.871,360.489,15.844" transform="translate(68.667 2.895)" fill="#dc7c59"/>
          <path id="Path_4341" data-name="Path 4341" d="M373.4,42.671l2.511,4.639-2.171,1.758" transform="translate(73.886 8.443)" fill="none" stroke="#000" stroke-linecap="round" stroke-linejoin="round" stroke-width="0.444"/>
          <path id="Path_4342" data-name="Path 4342" d="M375.423,29.564s-.728,1.815,2.1,2.144a25.143,25.143,0,0,1,4.726.777,1.766,1.766,0,0,0,1.878-.474.994.994,0,0,0-.007-1.31,7.2,7.2,0,0,0-4.73-2.36c-3.356-.428-3.971,1.223-3.971,1.223" transform="translate(74.269 5.594)"/>
          <path id="Path_4343" data-name="Path 4343" d="M370.658,29.512s.964,1.8-3,2.184a62.818,62.818,0,0,0-8.3,1.594,3.082,3.082,0,0,1-2.608-.442.8.8,0,0,1,.048-1.31,19.114,19.114,0,0,1,8.354-3.178c4.7-.489,5.507,1.152,5.507,1.152" transform="translate(70.527 5.594)"/>
          <path id="Path_4344" data-name="Path 4344" d="M371.032,41.154s-1.98-7.245-11.482-1.822c0,0,4.006,6.572,11.482,1.822" transform="translate(71.144 7.384)" fill="#fff"/>
        </g>
      </g>
      <g id="Group_1080" data-name="Group 1080" transform="translate(430.694 44.702)">
        <g id="Group_1079" data-name="Group 1079" clip-path="url(#clip-path-22)">
          <path id="Path_4345" data-name="Path 4345" d="M368.233,39.9a2.993,2.993,0,1,1-3.372-2.663,3.04,3.04,0,0,1,3.372,2.663" transform="translate(-359.011 -37.339)"/>
        </g>
      </g>
      <g id="Group_1082" data-name="Group 1082">
        <g id="Group_1081" data-name="Group 1081" clip-path="url(#clip-path-2)">
          <path id="Path_4347" data-name="Path 4347" d="M359.457,39.213a10.034,10.034,0,0,1,3-1.568,10.892,10.892,0,0,1,3.353-.577,6.786,6.786,0,0,1,3.347.885,4.676,4.676,0,0,1,2.126,2.864.435.435,0,0,1-.846.2l0-.014-.01-.048a3.91,3.91,0,0,0-1.671-2.375,6.094,6.094,0,0,0-2.967-.89,10.294,10.294,0,0,0-3.174.452,9.548,9.548,0,0,0-2.9,1.4.211.211,0,0,1-.3-.042.215.215,0,0,1,.041-.293" transform="translate(71.11 7.335)"/>
          <path id="Path_4348" data-name="Path 4348" d="M375.151,41.055s2.749-7.247,8.068-2.338c0,0-2.966,6.876-8.068,2.338" transform="translate(74.231 7.323)" fill="#fff"/>
        </g>
      </g>
      <g id="Group_1084" data-name="Group 1084" transform="translate(449.382 44.334)">
        <g id="Group_1083" data-name="Group 1083" clip-path="url(#clip-path-24)">
          <path id="Path_4349" data-name="Path 4349" d="M376.8,39.472a2.289,2.289,0,1,0,4.406.667,2.289,2.289,0,1,0-4.406-.667" transform="translate(-374.832 -37.013)"/>
        </g>
      </g>
      <g id="Group_1086" data-name="Group 1086">
        <g id="Group_1085" data-name="Group 1085" clip-path="url(#clip-path-2)">
          <path id="Path_4351" data-name="Path 4351" d="M383.106,38.852a3.741,3.741,0,0,0-1.561-1.278,3.131,3.131,0,0,0-1.945-.145l-.035.008a4.649,4.649,0,0,0-2.375,1.219,6.19,6.19,0,0,0-1.489,2.238l-.01.023a.366.366,0,1,1-.684-.262l0-.01a6.737,6.737,0,0,1,.746-1.331,6.6,6.6,0,0,1,1.01-1.122,5.249,5.249,0,0,1,1.266-.835,5.2,5.2,0,0,1,1.452-.436l-.035.007a3.45,3.45,0,0,1,1.167-.062,3.5,3.5,0,0,1,1.1.305,4.138,4.138,0,0,1,1.678,1.478.178.178,0,0,1-.292.2" transform="translate(74.198 7.29)"/>
          <path id="Path_4352" data-name="Path 4352" d="M376.874,51.516a3.763,3.763,0,0,1-3.941,2.641,7.337,7.337,0,0,1-6.078-3.7Z" transform="translate(72.59 9.984)" fill="#d8553d"/>
          <path id="Path_4353" data-name="Path 4353" d="M367.191,50.536s8.889-1.545,9.455.951c0,0-6.192.939-9.455-.951" transform="translate(72.656 9.906)" fill="#d8553d"/>
          <path id="Path_4354" data-name="Path 4354" d="M377.406,51.227s-4.727,2.272-10.812-1.079" transform="translate(72.538 9.923)" fill="none" stroke="#000" stroke-linecap="round" stroke-linejoin="round" stroke-width="0.444"/>
          <path id="Path_4355" data-name="Path 4355" d="M353.483,48.162s9.845-21.253-3.674-28.054c0,0-4.331-4.288-6.527,7.22-3.523,18.46,10.2,20.835,10.2,20.835" transform="translate(67.811 3.824)"/>
          <path id="Path_4356" data-name="Path 4356" d="M356.263,49.27a20.376,20.376,0,0,0-3.083-7.089c-2.06-2.978-4.984-5.714-8.571-3.431-6.107,3.889,1.635,13.657,8.4,13.675,1.991,0,3.613-1.575,3.251-3.155" transform="translate(67.75 7.5)" fill="#dc7c59"/>
          <path id="Path_4357" data-name="Path 4357" d="M345.7,42.782c4.775-1.7,7.406,3.644,7.406,3.644" transform="translate(68.404 8.399)" fill="none" stroke="#000" stroke-linecap="round" stroke-linejoin="round" stroke-width="0.444"/>
          <path id="Path_4358" data-name="Path 4358" d="M352.454,49.743a1.724,1.724,0,1,1-1.724-1.723,1.724,1.724,0,0,1,1.724,1.723" transform="translate(69.058 9.502)" fill="#fff"/>
          <path id="Path_4359" data-name="Path 4359" d="M349.94,22.292s11.934,4.93,22.105,0,16.162,4.415,16.162,4.415-3.628-14.856-20.481-13.7-17.786,9.28-17.786,9.28" transform="translate(69.243 2.562)"/>
        </g>
      </g>
    </g>
  </g>
</svg>
